<svg xmlns="http://www.w3.org/2000/svg" xmlns:xlink="http://www.w3.org/1999/xlink" xmlns:lucid="lucid" width="1520" height="740"><g transform="translate(-360 -80)" lucid:page-tab-id="~Od9FEz6TfDT"><path d="M860 100h100v700H860z" stroke="#000" stroke-opacity="0" stroke-width="2" fill="#e5e5e5"/><use xlink:href="#a" transform="matrix(1,0,0,1,865,105) translate(35.67901234567901 26.844444444444434)"/><path d="M740 100h100v700H740z" stroke="#000" stroke-opacity="0" stroke-width="2" fill="#e5e5e5"/><use xlink:href="#b" transform="matrix(1,0,0,1,745,105) translate(35.67901234567901 26.844444444444434)"/><path d="M620 100h100v700H620z" stroke="#000" stroke-opacity="0" stroke-width="2" fill="#e5e5e5"/><use xlink:href="#c" transform="matrix(1,0,0,1,625,105) translate(35.67901234567901 26.844444444444434)"/><path d="M500 100h100v700H500z" stroke="#000" stroke-opacity="0" stroke-width="2" fill="#e5e5e5"/><use xlink:href="#d" transform="matrix(1,0,0,1,505,105) translate(35.67901234567901 26.844444444444434)"/><path d="M380 100h100v700H380z" stroke="#000" stroke-opacity="0" stroke-width="2" fill="#e5e5e5"/><use xlink:href="#e" transform="matrix(1,0,0,1,385,105) translate(35.67901234567901 26.844444444444434)"/><path d="M460 190c0 16.57-13.43 30-30 30s-30-13.43-30-30 13.43-30 30-30 30 13.43 30 30z" stroke="#000" stroke-opacity="0" stroke-width="2" fill="#d1bcd2"/><use xlink:href="#f" transform="matrix(1,0,0,1,405,165) translate(12.934320987654326 34.844444444444434)"/><path d="M580 510c0 16.57-13.43 30-30 30s-30-13.43-30-30 13.43-30 30-30 30 13.43 30 30z" stroke="#000" stroke-opacity="0" stroke-width="2" fill="#d1bcd2"/><use xlink:href="#g" transform="matrix(1,0,0,1,525,485) translate(12.934320987654326 34.844444444444434)"/><path d="M460 270c0 16.57-13.43 30-30 30s-30-13.43-30-30 13.43-30 30-30 30 13.43 30 30z" stroke="#000" stroke-opacity="0" stroke-width="2" fill="#d1bcd2"/><use xlink:href="#h" transform="matrix(1,0,0,1,405,245) translate(12.934320987654326 34.844444444444434)"/><path d="M940 430c0 16.57-13.43 30-30 30s-30-13.43-30-30 13.43-30 30-30 30 13.43 30 30z" stroke="#000" stroke-opacity="0" stroke-width="2" fill="#d1bcd2"/><use xlink:href="#i" transform="matrix(1,0,0,1,885,405) translate(12.934320987654326 34.844444444444434)"/><path d="M940 510c0 16.57-13.43 30-30 30s-30-13.43-30-30 13.43-30 30-30 30 13.43 30 30z" stroke="#000" stroke-opacity="0" stroke-width="2" fill="#ffbbb1"/><use xlink:href="#f" transform="matrix(1,0,0,1,885,485) translate(12.934320987654326 34.844444444444434)"/><path d="M580 270c0 16.57-13.43 30-30 30s-30-13.43-30-30 13.43-30 30-30 30 13.43 30 30z" stroke="#000" stroke-opacity="0" stroke-width="2" fill="#ffbbb1"/><use xlink:href="#g" transform="matrix(1,0,0,1,525,245) translate(12.934320987654326 34.844444444444434)"/><path d="M820 270c0 16.57-13.43 30-30 30s-30-13.43-30-30 13.43-30 30-30 30 13.43 30 30z" stroke="#000" stroke-opacity="0" stroke-width="2" fill="#ffeca9"/><use xlink:href="#f" transform="matrix(1,0,0,1,765,245) translate(12.934320987654326 34.844444444444434)"/><path d="M700 270c0 16.57-13.43 30-30 30s-30-13.43-30-30 13.43-30 30-30 30 13.43 30 30z" stroke="#000" stroke-opacity="0" stroke-width="2" fill="#ffeca9"/><use xlink:href="#g" transform="matrix(1,0,0,1,645,245) translate(12.934320987654326 34.844444444444434)"/><path d="M940 270c0 16.57-13.43 30-30 30s-30-13.43-30-30 13.43-30 30-30 30 13.43 30 30z" stroke="#000" stroke-opacity="0" stroke-width="2" fill="#ffeca9"/><use xlink:href="#h" transform="matrix(1,0,0,1,885,245) translate(12.934320987654326 34.844444444444434)"/><path d="M580 190c0 16.57-13.43 30-30 30s-30-13.43-30-30 13.43-30 30-30 30 13.43 30 30z" stroke="#000" stroke-opacity="0" stroke-width="2" fill="#ffeca9"/><use xlink:href="#i" transform="matrix(1,0,0,1,525,165) translate(12.934320987654326 34.844444444444434)"/><path d="M820 190c0 16.57-13.43 30-30 30s-30-13.43-30-30 13.43-30 30-30 30 13.43 30 30z" stroke="#000" stroke-opacity="0" stroke-width="2" fill="#c7e8ac"/><use xlink:href="#f" transform="matrix(1,0,0,1,765,165) translate(12.934320987654326 34.844444444444434)"/><path d="M700 190c0 16.57-13.43 30-30 30s-30-13.43-30-30 13.43-30 30-30 30 13.43 30 30z" stroke="#000" stroke-opacity="0" stroke-width="2" fill="#c7e8ac"/><use xlink:href="#g" transform="matrix(1,0,0,1,645,165) translate(12.934320987654326 34.844444444444434)"/><path d="M820 350c0 16.57-13.43 30-30 30s-30-13.43-30-30 13.43-30 30-30 30 13.43 30 30z" stroke="#000" stroke-opacity="0" stroke-width="2" fill="#c7e8ac"/><use xlink:href="#h" transform="matrix(1,0,0,1,765,325) translate(12.934320987654326 34.844444444444434)"/><path d="M940 190c0 16.57-13.43 30-30 30s-30-13.43-30-30 13.43-30 30-30 30 13.43 30 30z" stroke="#000" stroke-opacity="0" stroke-width="2" fill="#c7e8ac"/><use xlink:href="#i" transform="matrix(1,0,0,1,885,165) translate(12.934320987654326 34.844444444444434)"/><path d="M580 430c0 16.57-13.43 30-30 30s-30-13.43-30-30 13.43-30 30-30 30 13.43 30 30z" stroke="#000" stroke-opacity="0" stroke-width="2" fill="#c1e4f7"/><use xlink:href="#f" transform="matrix(1,0,0,1,525,405) translate(12.934320987654326 34.844444444444434)"/><path d="M460 350c0 16.57-13.43 30-30 30s-30-13.43-30-30 13.43-30 30-30 30 13.43 30 30z" stroke="#000" stroke-opacity="0" stroke-width="2" fill="#c1e4f7"/><use xlink:href="#g" transform="matrix(1,0,0,1,405,325) translate(12.934320987654326 34.844444444444434)"/><path d="M940 350c0 16.57-13.43 30-30 30s-30-13.43-30-30 13.43-30 30-30 30 13.43 30 30z" stroke="#000" stroke-opacity="0" stroke-width="2" fill="#c1e4f7"/><use xlink:href="#h" transform="matrix(1,0,0,1,885,325) translate(12.934320987654326 34.844444444444434)"/><path d="M580 350c0 16.57-13.43 30-30 30s-30-13.43-30-30 13.43-30 30-30 30 13.43 30 30z" stroke="#000" stroke-opacity="0" stroke-width="2" fill="#c1e4f7"/><use xlink:href="#i" transform="matrix(1,0,0,1,525,325) translate(12.934320987654326 34.844444444444434)"/><path d="M1760 100h100v700h-100z" stroke="#000" stroke-opacity="0" stroke-width="2" fill="#e5e5e5"/><use xlink:href="#a" transform="matrix(1,0,0,1,1765,105) translate(35.67901234567901 26.844444444444434)"/><path d="M1640 100h100v700h-100z" stroke="#000" stroke-opacity="0" stroke-width="2" fill="#e5e5e5"/><use xlink:href="#b" transform="matrix(1,0,0,1,1645,105) translate(35.67901234567901 26.844444444444434)"/><path d="M1520 100h100v700h-100z" stroke="#000" stroke-opacity="0" stroke-width="2" fill="#e5e5e5"/><use xlink:href="#c" transform="matrix(1,0,0,1,1525,105) translate(35.67901234567901 26.844444444444434)"/><path d="M1400 100h100v700h-100z" stroke="#000" stroke-opacity="0" stroke-width="2" fill="#e5e5e5"/><use xlink:href="#d" transform="matrix(1,0,0,1,1405,105) translate(35.67901234567901 26.844444444444434)"/><path d="M1280 100h100v700h-100z" stroke="#000" stroke-opacity="0" stroke-width="2" fill="#e5e5e5"/><use xlink:href="#e" transform="matrix(1,0,0,1,1285,105) translate(35.67901234567901 26.844444444444434)"/><path d="M1360 190c0 16.57-13.43 30-30 30s-30-13.43-30-30 13.43-30 30-30 30 13.43 30 30z" stroke="#000" stroke-opacity="0" stroke-width="2" fill="#d1bcd2"/><use xlink:href="#f" transform="matrix(1,0,0,1,1305,165) translate(12.934320987654326 34.844444444444434)"/><path d="M1480 430c0 16.57-13.43 30-30 30s-30-13.43-30-30 13.43-30 30-30 30 13.43 30 30z" stroke="#000" stroke-opacity="0" stroke-width="2" fill="#d1bcd2"/><use xlink:href="#g" transform="matrix(1,0,0,1,1425,405) translate(12.934320987654326 34.844444444444434)"/><path d="M1360 350c0 16.57-13.43 30-30 30s-30-13.43-30-30 13.43-30 30-30 30 13.43 30 30z" stroke="#000" stroke-opacity="0" stroke-width="2" fill="#d1bcd2"/><use xlink:href="#h" transform="matrix(1,0,0,1,1305,325) translate(12.934320987654326 34.844444444444434)"/><path d="M1720 430c0 16.57-13.43 30-30 30s-30-13.43-30-30 13.43-30 30-30 30 13.43 30 30z" stroke="#000" stroke-opacity="0" stroke-width="2" fill="#d1bcd2"/><use xlink:href="#i" transform="matrix(1,0,0,1,1665,405) translate(12.934320987654326 34.844444444444434)"/><path d="M1360 270c0 16.57-13.43 30-30 30s-30-13.43-30-30 13.43-30 30-30 30 13.43 30 30z" stroke="#000" stroke-opacity="0" stroke-width="2" fill="#ffbbb1"/><use xlink:href="#f" transform="matrix(1,0,0,1,1305,245) translate(12.934320987654326 34.844444444444434)"/><path d="M1480 270c0 16.57-13.43 30-30 30s-30-13.43-30-30 13.43-30 30-30 30 13.43 30 30z" stroke="#000" stroke-opacity="0" stroke-width="2" fill="#ffbbb1"/><use xlink:href="#g" transform="matrix(1,0,0,1,1425,245) translate(12.934320987654326 34.844444444444434)"/><path d="M1600 350c0 16.57-13.43 30-30 30s-30-13.43-30-30 13.43-30 30-30 30 13.43 30 30z" stroke="#000" stroke-opacity="0" stroke-width="2" fill="#ffeca9"/><use xlink:href="#f" transform="matrix(1,0,0,1,1545,325) translate(12.934320987654326 34.844444444444434)"/><path d="M1600 270c0 16.57-13.43 30-30 30s-30-13.43-30-30 13.43-30 30-30 30 13.43 30 30z" stroke="#000" stroke-opacity="0" stroke-width="2" fill="#ffeca9"/><use xlink:href="#g" transform="matrix(1,0,0,1,1545,245) translate(12.934320987654326 34.844444444444434)"/><path d="M1720 270c0 16.57-13.43 30-30 30s-30-13.43-30-30 13.43-30 30-30 30 13.43 30 30z" stroke="#000" stroke-opacity="0" stroke-width="2" fill="#ffeca9"/><use xlink:href="#h" transform="matrix(1,0,0,1,1665,245) translate(12.934320987654326 34.844444444444434)"/><path d="M1480 190c0 16.57-13.43 30-30 30s-30-13.43-30-30 13.43-30 30-30 30 13.43 30 30z" stroke="#000" stroke-opacity="0" stroke-width="2" fill="#ffeca9"/><use xlink:href="#i" transform="matrix(1,0,0,1,1425,165) translate(12.934320987654326 34.844444444444434)"/><path d="M1720 190c0 16.57-13.43 30-30 30s-30-13.43-30-30 13.43-30 30-30 30 13.43 30 30z" stroke="#000" stroke-opacity="0" stroke-width="2" fill="#c7e8ac"/><use xlink:href="#f" transform="matrix(1,0,0,1,1665,165) translate(12.934320987654326 34.844444444444434)"/><path d="M1600 190c0 16.57-13.43 30-30 30s-30-13.43-30-30 13.43-30 30-30 30 13.43 30 30z" stroke="#000" stroke-opacity="0" stroke-width="2" fill="#c7e8ac"/><use xlink:href="#g" transform="matrix(1,0,0,1,1545,165) translate(12.934320987654326 34.844444444444434)"/><path d="M1360 510c0 16.57-13.43 30-30 30s-30-13.43-30-30 13.43-30 30-30 30 13.43 30 30z" stroke="#000" stroke-opacity="0" stroke-width="2" fill="#c7e8ac"/><use xlink:href="#h" transform="matrix(1,0,0,1,1305,485) translate(12.934320987654326 34.844444444444434)"/><path d="M1720 350c0 16.57-13.43 30-30 30s-30-13.43-30-30 13.43-30 30-30 30 13.43 30 30z" stroke="#000" stroke-opacity="0" stroke-width="2" fill="#c7e8ac"/><use xlink:href="#i" transform="matrix(1,0,0,1,1665,325) translate(12.934320987654326 34.844444444444434)"/><path d="M1600 430c0 16.57-13.43 30-30 30s-30-13.43-30-30 13.43-30 30-30 30 13.43 30 30z" stroke="#000" stroke-opacity="0" stroke-width="2" fill="#c1e4f7"/><use xlink:href="#f" transform="matrix(1,0,0,1,1545,405) translate(12.934320987654326 34.844444444444434)"/><path d="M1360 430c0 16.57-13.43 30-30 30s-30-13.43-30-30 13.43-30 30-30 30 13.43 30 30z" stroke="#000" stroke-opacity="0" stroke-width="2" fill="#c1e4f7"/><use xlink:href="#g" transform="matrix(1,0,0,1,1305,405) translate(12.934320987654326 34.844444444444434)"/><path d="M1720 510c0 16.57-13.43 30-30 30s-30-13.43-30-30 13.43-30 30-30 30 13.43 30 30z" stroke="#000" stroke-opacity="0" stroke-width="2" fill="#c1e4f7"/><use xlink:href="#h" transform="matrix(1,0,0,1,1665,485) translate(12.934320987654326 34.844444444444434)"/><path d="M1480 350c0 16.57-13.43 30-30 30s-30-13.43-30-30 13.43-30 30-30 30 13.43 30 30z" stroke="#000" stroke-opacity="0" stroke-width="2" fill="#c1e4f7"/><use xlink:href="#i" transform="matrix(1,0,0,1,1425,325) translate(12.934320987654326 34.844444444444434)"/><path d="M1040 330h105v-70l55 150-55 150v-70h-105z" stroke="#000" stroke-opacity="0" stroke-width="2" fill="#ccc"/><defs><path d="M155-56V0h-30v-56H8v-25l114-167h33v167h35v25h-35zm-30-156c-27 46-58 90-88 131h88v-131" id="j"/><use transform="matrix(0.09320987654320984,0,0,0.09320987654320984,0,0)" xlink:href="#j" id="a"/><path d="M126-127c33 6 58 20 58 59 0 88-139 92-164 29-3-8-5-16-6-25l32-3c6 27 21 44 54 44 32 0 52-15 52-46 0-38-36-46-79-43v-28c39 1 72-4 72-42 0-27-17-43-46-43-28 0-47 15-49 41l-32-3c6-42 35-63 81-64 48-1 79 21 79 65 0 36-21 52-52 59" id="k"/><use transform="matrix(0.09320987654320984,0,0,0.09320987654320984,0,0)" xlink:href="#k" id="b"/><path d="M101-251c82-7 93 87 43 132L82-64C71-53 59-42 53-27h129V0H18c2-99 128-94 128-182 0-28-16-43-45-43s-46 15-49 41l-32-3c6-41 34-60 81-64" id="l"/><use transform="matrix(0.09320987654320984,0,0,0.09320987654320984,0,0)" xlink:href="#l" id="c"/><path d="M27 0v-27h64v-190l-56 39v-29l58-41h29v221h61V0H27" id="m"/><use transform="matrix(0.09320987654320984,0,0,0.09320987654320984,0,0)" xlink:href="#m" id="d"/><path d="M101-251c68 0 85 55 85 127S166 4 100 4C33 4 14-52 14-124c0-73 17-127 87-127zm-1 229c47 0 54-49 54-102s-4-102-53-102c-51 0-55 48-55 102 0 53 5 102 54 102" id="n"/><use transform="matrix(0.09320987654320984,0,0,0.09320987654320984,0,0)" xlink:href="#n" id="e"/><path d="M199 0l-22-63H83L61 0H9l90-248h61L250 0h-51zm-33-102l-36-108c-10 38-24 72-36 108h72" id="o"/><use transform="matrix(0.09320987654320984,0,0,0.09320987654320984,0,0)" xlink:href="#o" id="f"/><path d="M182-130c37 4 62 22 62 59C244 23 116-4 24 0v-248c84 5 203-23 205 63 0 31-19 50-47 55zM76-148c40-3 101 13 101-30 0-44-60-28-101-31v61zm0 110c48-3 116 14 116-37 0-48-69-32-116-35v72" id="p"/><use transform="matrix(0.09320987654320984,0,0,0.09320987654320984,0,0)" xlink:href="#p" id="g"/><path d="M67-125c0 53 21 87 73 88 37 1 54-22 65-47l45 17C233-25 199 4 140 4 58 4 20-42 15-125 8-235 124-281 211-232c18 10 29 29 36 50l-46 12c-8-25-30-41-62-41-52 0-71 34-72 86" id="q"/><use transform="matrix(0.09320987654320984,0,0,0.09320987654320984,0,0)" xlink:href="#q" id="h"/><path d="M24-248c120-7 223 5 221 122C244-46 201 0 124 0H24v-248zM76-40c74 7 117-18 117-86 0-67-45-88-117-82v168" id="r"/><use transform="matrix(0.09320987654320984,0,0,0.09320987654320984,0,0)" xlink:href="#r" id="i"/></defs></g></svg>