<svg xmlns="http://www.w3.org/2000/svg" xmlns:xlink="http://www.w3.org/1999/xlink" xmlns:lucid="lucid" width="1240" height="488"><g transform="translate(-12 -28)" lucid:page-tab-id="dsm7UA06_lkG"><path d="M0 0h1760v1360H0z" fill="#fff"/><path d="M32 48h1200v448H32z" stroke="#000" stroke-opacity="0" stroke-width="2" fill-opacity="0"/><path d="M384 128h192v64H384z" stroke="#000" stroke-opacity="0" stroke-width="2" fill="#f9d2de"/><use xlink:href="#a" transform="matrix(1,0,0,1,389,133) translate(51.192283950617295 31.455555555555552)"/><path d="M480 193v44.5" stroke="#666" stroke-width="2" fill="none"/><path d="M481 193.03h-2V192h2z" fill="#666"/><path d="M480 252.76l-4.64-14.26h9.28z" stroke="#666" stroke-width="2" fill="#666"/><path d="M640 128h192v64H640z" stroke="#000" stroke-opacity="0" stroke-width="2" fill="#ffeca9"/><use xlink:href="#b" transform="matrix(1,0,0,1,645,133) translate(36.198148148148164 31.455555555555552)"/><path d="M736 193v44.5" stroke="#666" stroke-width="2" fill="none"/><path d="M737 193.03h-2V192h2z" fill="#666"/><path d="M736 252.76l-4.64-14.26h9.28z" stroke="#666" stroke-width="2" fill="#666"/><path d="M640.83 64.55l79.78 53.2M640.85 64.57L640 64" stroke="#666" stroke-width="2" fill="none"/><path d="M733.3 126.2l-14.43-4.05 5.14-7.72z" stroke="#666" stroke-width="2" fill="#666"/><path d="M736 65v44.5M736 65.03V64" stroke="#666" stroke-width="2" fill="none"/><path d="M736 124.76l-4.64-14.26h9.28z" stroke="#666" stroke-width="2" fill="#666"/><path d="M831.17 64.55l-79.78 53.2M831.15 64.57L832 64" stroke="#666" stroke-width="2" fill="none"/><path d="M738.7 126.2l9.3-11.77 5.13 7.72z" stroke="#666" stroke-width="2" fill="#666"/><path d="M896 128h192v64H896z" stroke="#000" stroke-opacity="0" stroke-width="2" fill="#c7e8ac"/><use xlink:href="#c" transform="matrix(1,0,0,1,901,133) translate(40.063580246913595 31.455555555555552)"/><path d="M896.83 64.55l79.78 53.2M896.85 64.57L896 64" stroke="#666" stroke-width="2" fill="none"/><path d="M989.3 126.2l-14.43-4.05 5.14-7.72z" stroke="#666" stroke-width="2" fill="#666"/><path d="M992 65v44.5M992 65.03V64" stroke="#666" stroke-width="2" fill="none"/><path d="M992 124.76l-4.64-14.26h9.28z" stroke="#666" stroke-width="2" fill="#666"/><path d="M1087.17 64.55l-79.78 53.2M1087.15 64.57l.85-.57" stroke="#666" stroke-width="2" fill="none"/><path d="M994.7 126.2l9.3-11.77 5.13 7.72z" stroke="#666" stroke-width="2" fill="#666"/><path d="M256 352h192v64H256z" stroke="#000" stroke-opacity="0" stroke-width="2" fill="#c1e4f7"/><use xlink:href="#d" transform="matrix(1,0,0,1,261.00000000000006,357) translate(25.66172839506173 31.455555555555552)"/><path d="M352 417v44.5" stroke="#666" stroke-width="2" fill="none"/><path d="M353 417.03h-2V416h2z" fill="#666"/><path d="M352 476.76l-4.64-14.26h9.28z" stroke="#666" stroke-width="2" fill="#666"/><path d="M512 352h192v64H512z" stroke="#000" stroke-opacity="0" stroke-width="2" fill="#99d5ca"/><use xlink:href="#e" transform="matrix(1,0,0,1,517,357) translate(10.76111111111112 31.455555555555552)"/><path d="M608 417v44.5" stroke="#666" stroke-width="2" fill="none"/><path d="M609 417.03h-2V416h2z" fill="#666"/><path d="M608 476.76l-4.64-14.26h9.28z" stroke="#666" stroke-width="2" fill="#666"/><path d="M512.83 288.55l79.78 53.2M512.85 288.57L512 288" stroke="#666" stroke-width="2" fill="none"/><path d="M605.3 350.2l-14.43-4.05 5.14-7.72z" stroke="#666" stroke-width="2" fill="#666"/><path d="M608 289v44.5M608 289.03V288" stroke="#666" stroke-width="2" fill="none"/><path d="M608 348.76l-4.64-14.26h9.28z" stroke="#666" stroke-width="2" fill="#666"/><path d="M703.17 288.55l-79.78 53.2M703.15 288.57l.85-.57" stroke="#666" stroke-width="2" fill="none"/><path d="M610.7 350.2l9.3-11.77 5.13 7.72z" stroke="#666" stroke-width="2" fill="#666"/><path d="M352 289v44.5M352 289.03V288" stroke="#666" stroke-width="2" fill="none"/><path d="M352 348.76l-4.64-14.26h9.28z" stroke="#666" stroke-width="2" fill="#666"/><path d="M32 132h176v60H32z" stroke="#000" stroke-opacity="0" stroke-width="2" fill="#fff" fill-opacity="0"/><use xlink:href="#f" transform="matrix(1,0,0,1,37,137) translate(0 31.138888888888893)"/><use xlink:href="#g" transform="matrix(1,0,0,1,37,137) translate(98.4320987654321 31.138888888888893)"/><path d="M32 343.67h192v84.66H32z" stroke="#000" stroke-opacity="0" stroke-width="2" fill="#fff" fill-opacity="0"/><use xlink:href="#h" transform="matrix(1,0,0,1,37,348.66666666666663) translate(0 43.63888888888889)"/><use xlink:href="#g" transform="matrix(1,0,0,1,37,348.66666666666663) translate(115.02469135802471 43.63888888888889)"/><path d="M768 352h192v64H768z" stroke="#000" stroke-opacity="0" stroke-width="2" fill="#c1e4f7"/><use xlink:href="#i" transform="matrix(1,0,0,1,773,357) translate(9.225000000000023 31.274999999999995)"/><path d="M1024 352h192v64h-192z" stroke="#000" stroke-opacity="0" stroke-width="2" fill="#99d5ca"/><use xlink:href="#j" transform="matrix(1,0,0,1,1029,357) translate(-2.7249999999999517 30.599999999999998)"/><path d="M1024.83 288.55l79.78 53.2M1024.85 288.57l-.85-.57" stroke="#666" stroke-width="2" fill="none"/><path d="M1117.3 350.2l-14.43-4.05 5.14-7.72z" stroke="#666" stroke-width="2" fill="#666"/><path d="M1120 289v44.5M1120 289.03V288" stroke="#666" stroke-width="2" fill="none"/><path d="M1120 348.76l-4.64-14.26h9.28z" stroke="#666" stroke-width="2" fill="#666"/><path d="M1215.17 288.55l-79.78 53.2M1215.15 288.57l.85-.57" stroke="#666" stroke-width="2" fill="none"/><path d="M1122.7 350.2l9.3-11.77 5.13 7.72z" stroke="#666" stroke-width="2" fill="#666"/><path d="M864 289v44.5M864 289.03V288" stroke="#666" stroke-width="2" fill="none"/><path d="M864 348.76l-4.64-14.26h9.28z" stroke="#666" stroke-width="2" fill="#666"/><defs><path d="M67-125c0 53 21 87 73 88 37 1 54-22 65-47l45 17C233-25 199 4 140 4 58 4 20-42 15-125 8-235 124-281 211-232c18 10 29 29 36 50l-46 12c-8-25-30-41-62-41-52 0-71 34-72 86" id="k"/><path d="M135-150c-39-12-60 13-60 57V0H25l-1-190h47c2 13-1 29 3 40 6-28 27-53 61-41v41" id="l"/><path d="M185-48c-13 30-37 53-82 52C43 2 14-33 14-96s30-98 90-98c62 0 83 45 84 108H66c0 31 8 55 39 56 18 0 30-7 34-22zm-45-69c5-46-57-63-70-21-2 6-4 13-4 21h74" id="m"/><path d="M133-34C117-15 103 5 69 4 32 3 11-16 11-54c-1-60 55-63 116-61 1-26-3-47-28-47-18 1-26 9-28 27l-52-2c7-38 36-58 82-57s74 22 75 68l1 82c-1 14 12 18 25 15v27c-30 8-71 5-69-32zm-48 3c29 0 43-24 42-57-32 0-66-3-65 30 0 17 8 27 23 27" id="n"/><path d="M115-3C79 11 28 4 28-45v-112H4v-33h27l15-45h31v45h36v33H77v99c-1 23 16 31 38 25v30" id="o"/><path d="M110-194c64 0 96 36 96 99 0 64-35 99-97 99-61 0-95-36-95-99 0-62 34-99 96-99zm-1 164c35 0 45-28 45-65 0-40-10-65-43-65-34 0-45 26-45 65 0 36 10 65 43 65" id="p"/><g id="a"><use transform="matrix(0.06234567901234567,0,0,0.06234567901234567,0,0)" xlink:href="#k"/><use transform="matrix(0.06234567901234567,0,0,0.06234567901234567,16.147530864197527,0)" xlink:href="#l"/><use transform="matrix(0.06234567901234567,0,0,0.06234567901234567,24.87592592592592,0)" xlink:href="#m"/><use transform="matrix(0.06234567901234567,0,0,0.06234567901234567,37.34506172839505,0)" xlink:href="#n"/><use transform="matrix(0.06234567901234567,0,0,0.06234567901234567,49.814197530864185,0)" xlink:href="#o"/><use transform="matrix(0.06234567901234567,0,0,0.06234567901234567,57.23333333333332,0)" xlink:href="#p"/><use transform="matrix(0.06234567901234567,0,0,0.06234567901234567,70.88703703703702,0)" xlink:href="#l"/></g><path d="M24-248c93 1 206-16 204 79-1 75-69 88-152 82V0H24v-248zm52 121c47 0 100 7 100-41 0-47-54-39-100-39v80" id="q"/><path d="M190-63c-7 42-38 67-86 67-59 0-84-38-90-98-12-110 154-137 174-36l-49 2c-2-19-15-32-35-32-30 0-35 28-38 64-6 74 65 87 74 30" id="r"/><path d="M137-138c1-29-70-34-71-4 15 46 118 7 119 86 1 83-164 76-172 9l43-7c4 19 20 25 44 25 33 8 57-30 24-41C81-84 22-81 20-136c-2-80 154-74 161-7" id="s"/><g id="b"><use transform="matrix(0.06234567901234567,0,0,0.06234567901234567,0,0)" xlink:href="#q"/><use transform="matrix(0.06234567901234567,0,0,0.06234567901234567,14.96296296296296,0)" xlink:href="#l"/><use transform="matrix(0.06234567901234567,0,0,0.06234567901234567,23.691358024691354,0)" xlink:href="#p"/><use transform="matrix(0.06234567901234567,0,0,0.06234567901234567,37.34506172839505,0)" xlink:href="#r"/><use transform="matrix(0.06234567901234567,0,0,0.06234567901234567,49.814197530864185,0)" xlink:href="#m"/><use transform="matrix(0.06234567901234567,0,0,0.06234567901234567,62.28333333333332,0)" xlink:href="#s"/><use transform="matrix(0.06234567901234567,0,0,0.06234567901234567,74.75246913580244,0)" xlink:href="#s"/><use transform="matrix(0.06234567901234567,0,0,0.06234567901234567,87.22160493827158,0)" xlink:href="#p"/><use transform="matrix(0.06234567901234567,0,0,0.06234567901234567,100.87530864197528,0)" xlink:href="#l"/></g><path d="M140-251c80 0 125 45 125 126S219 4 139 4C58 4 15-44 15-125s44-126 125-126zm-1 214c52 0 73-35 73-88 0-50-21-86-72-86-52 0-73 35-73 86s22 88 72 88" id="t"/><path d="M85 4C-2 5 27-109 22-190h50c7 57-23 150 33 157 60-5 35-97 40-157h50l1 190h-47c-2-12 1-28-3-38-12 25-28 42-61 42" id="u"/><path d="M135-194c53 0 70 44 70 98 0 56-19 98-73 100-31 1-45-17-59-34 3 33 2 69 2 105H25l-1-265h48c2 10 0 23 3 31 11-24 29-35 60-35zM114-30c33 0 39-31 40-66 0-38-9-64-40-64-56 0-55 130 0 130" id="v"/><g id="c"><use transform="matrix(0.06234567901234567,0,0,0.06234567901234567,0,0)" xlink:href="#t"/><use transform="matrix(0.06234567901234567,0,0,0.06234567901234567,17.456790123456788,0)" xlink:href="#u"/><use transform="matrix(0.06234567901234567,0,0,0.06234567901234567,31.11049382716049,0)" xlink:href="#o"/><use transform="matrix(0.06234567901234567,0,0,0.06234567901234567,38.529629629629625,0)" xlink:href="#v"/><use transform="matrix(0.06234567901234567,0,0,0.06234567901234567,52.18333333333332,0)" xlink:href="#u"/><use transform="matrix(0.06234567901234567,0,0,0.06234567901234567,65.83703703703702,0)" xlink:href="#o"/><use transform="matrix(0.06234567901234567,0,0,0.06234567901234567,73.25617283950615,0)" xlink:href="#o"/><use transform="matrix(0.06234567901234567,0,0,0.06234567901234567,80.67530864197528,0)" xlink:href="#m"/><use transform="matrix(0.06234567901234567,0,0,0.06234567901234567,93.14444444444442,0)" xlink:href="#l"/></g><path d="M136-208V0H84v-208H4v-40h212v40h-80" id="w"/><path d="M135-194c87-1 58 113 63 194h-50c-7-57 23-157-34-157-59 0-34 97-39 157H25l-1-190h47c2 12-1 28 3 38 12-26 28-41 61-42" id="x"/><path d="M121-226c-27-7-43 5-38 36h38v33H83V0H34v-157H6v-33h28c-9-59 32-81 87-68v32" id="y"/><path d="M220-157c-53 9-28 100-34 157h-49v-107c1-27-5-49-29-50C55-147 81-57 75 0H25l-1-190h47c2 12-1 28 3 38 10-53 101-56 108 0 13-22 24-43 59-42 82 1 51 116 57 194h-49v-107c-1-25-5-48-29-50" id="z"/><g id="d"><use transform="matrix(0.06234567901234567,0,0,0.06234567901234567,0,0)" xlink:href="#w"/><use transform="matrix(0.06234567901234567,0,0,0.06234567901234567,12.406790123456789,0)" xlink:href="#l"/><use transform="matrix(0.06234567901234567,0,0,0.06234567901234567,21.135185185185183,0)" xlink:href="#n"/><use transform="matrix(0.06234567901234567,0,0,0.06234567901234567,33.60432098765432,0)" xlink:href="#x"/><use transform="matrix(0.06234567901234567,0,0,0.06234567901234567,47.25802469135802,0)" xlink:href="#s"/><use transform="matrix(0.06234567901234567,0,0,0.06234567901234567,59.72716049382715,0)" xlink:href="#y"/><use transform="matrix(0.06234567901234567,0,0,0.06234567901234567,67.14629629629628,0)" xlink:href="#p"/><use transform="matrix(0.06234567901234567,0,0,0.06234567901234567,80.79999999999998,0)" xlink:href="#l"/><use transform="matrix(0.06234567901234567,0,0,0.06234567901234567,89.52839506172838,0)" xlink:href="#z"/><use transform="matrix(0.06234567901234567,0,0,0.06234567901234567,109.479012345679,0)" xlink:href="#m"/><use transform="matrix(0.06234567901234567,0,0,0.06234567901234567,121.94814814814814,0)" xlink:href="#l"/></g><g id="e"><use transform="matrix(0.06234567901234567,0,0,0.06234567901234567,0,0)" xlink:href="#k"/><use transform="matrix(0.06234567901234567,0,0,0.06234567901234567,16.147530864197527,0)" xlink:href="#p"/><use transform="matrix(0.06234567901234567,0,0,0.06234567901234567,29.80123456790123,0)" xlink:href="#w"/><use transform="matrix(0.06234567901234567,0,0,0.06234567901234567,42.20802469135802,0)" xlink:href="#l"/><use transform="matrix(0.06234567901234567,0,0,0.06234567901234567,50.93641975308641,0)" xlink:href="#n"/><use transform="matrix(0.06234567901234567,0,0,0.06234567901234567,63.405555555555544,0)" xlink:href="#x"/><use transform="matrix(0.06234567901234567,0,0,0.06234567901234567,77.05925925925925,0)" xlink:href="#s"/><use transform="matrix(0.06234567901234567,0,0,0.06234567901234567,89.52839506172839,0)" xlink:href="#y"/><use transform="matrix(0.06234567901234567,0,0,0.06234567901234567,96.94753086419752,0)" xlink:href="#p"/><use transform="matrix(0.06234567901234567,0,0,0.06234567901234567,110.60123456790122,0)" xlink:href="#l"/><use transform="matrix(0.06234567901234567,0,0,0.06234567901234567,119.32962962962961,0)" xlink:href="#z"/><use transform="matrix(0.06234567901234567,0,0,0.06234567901234567,139.2802469135802,0)" xlink:href="#m"/><use transform="matrix(0.06234567901234567,0,0,0.06234567901234567,151.74938271604935,0)" xlink:href="#l"/></g><path fill="#b2b2b2" d="M24-248c120-7 223 5 221 122C244-46 201 0 124 0H24v-248zM76-40c74 7 117-18 117-86 0-67-45-88-117-82v168" id="A"/><path fill="#b2b2b2" d="M135-150c-39-12-60 13-60 57V0H25l-1-190h47c2 13-1 29 3 40 6-28 27-53 61-41v41" id="B"/><path fill="#b2b2b2" d="M25-224v-37h50v37H25zM25 0v-190h50V0H25" id="C"/><path fill="#b2b2b2" d="M128 0H69L1-190h53L99-40l48-150h52" id="D"/><path fill="#b2b2b2" d="M185-48c-13 30-37 53-82 52C43 2 14-33 14-96s30-98 90-98c62 0 83 45 84 108H66c0 31 8 55 39 56 18 0 30-7 34-22zm-45-69c5-46-57-63-70-21-2 6-4 13-4 21h74" id="E"/><g id="f"><use transform="matrix(0.08641975308641976,0,0,0.08641975308641976,0,0)" xlink:href="#A"/><use transform="matrix(0.08641975308641976,0,0,0.08641975308641976,22.38271604938272,0)" xlink:href="#B"/><use transform="matrix(0.08641975308641976,0,0,0.08641975308641976,34.48148148148148,0)" xlink:href="#C"/><use transform="matrix(0.08641975308641976,0,0,0.08641975308641976,43.123456790123456,0)" xlink:href="#D"/><use transform="matrix(0.08641975308641976,0,0,0.08641975308641976,60.407407407407405,0)" xlink:href="#E"/><use transform="matrix(0.08641975308641976,0,0,0.08641975308641976,77.69135802469135,0)" xlink:href="#B"/></g><path fill="#b2b2b2" d="M169-182c-1-43-94-46-97-3 18 66 151 10 154 114 3 95-165 93-204 36-6-8-10-19-12-30l50-8c3 46 112 56 116 5-17-69-150-10-154-114-4-87 153-88 188-35 5 8 8 18 10 28" id="F"/><path fill="#b2b2b2" d="M88-194c31-1 46 15 58 34l-1-101h50l1 261h-48c-2-10 0-23-3-31C134-8 116 4 84 4 32 4 16-41 15-95c0-56 19-97 73-99zm17 164c33 0 40-30 41-66 1-37-9-64-41-64s-38 30-39 65c0 43 13 65 39 65" id="G"/><g id="g"><use transform="matrix(0.08641975308641976,0,0,0.08641975308641976,0,0)" xlink:href="#F"/><use transform="matrix(0.08641975308641976,0,0,0.08641975308641976,20.740740740740744,0)" xlink:href="#C"/><use transform="matrix(0.08641975308641976,0,0,0.08641975308641976,29.382716049382726,0)" xlink:href="#G"/><use transform="matrix(0.08641975308641976,0,0,0.08641975308641976,48.308641975308646,0)" xlink:href="#E"/></g><path fill="#b2b2b2" d="M275 0h-61l-44-196L126 0H64L0-248h53L97-49l45-199h58l43 199 44-199h52" id="H"/><path fill="#b2b2b2" d="M110-194c64 0 96 36 96 99 0 64-35 99-97 99-61 0-95-36-95-99 0-62 34-99 96-99zm-1 164c35 0 45-28 45-65 0-40-10-65-43-65-34 0-45 26-45 65 0 36 10 65 43 65" id="I"/><path fill="#b2b2b2" d="M147 0L96-86 75-71V0H25v-261h50v150l67-79h53l-66 74L201 0h-54" id="J"/><g id="h"><use transform="matrix(0.08641975308641976,0,0,0.08641975308641976,0,0)" xlink:href="#H"/><use transform="matrix(0.08641975308641976,0,0,0.08641975308641976,28.69135802469136,0)" xlink:href="#I"/><use transform="matrix(0.08641975308641976,0,0,0.08641975308641976,47.61728395061729,0)" xlink:href="#B"/><use transform="matrix(0.08641975308641976,0,0,0.08641975308641976,59.71604938271606,0)" xlink:href="#J"/><use transform="matrix(0.08641975308641976,0,0,0.08641975308641976,77.00000000000001,0)" xlink:href="#E"/><use transform="matrix(0.08641975308641976,0,0,0.08641975308641976,94.28395061728396,0)" xlink:href="#B"/></g><g id="i"><use transform="matrix(0.04999999999999998,0,0,0.04999999999999998,0,0)" xlink:href="#t"/><use transform="matrix(0.04999999999999998,0,0,0.04999999999999998,13.999999999999995,0)" xlink:href="#u"/><use transform="matrix(0.04999999999999998,0,0,0.04999999999999998,24.94999999999999,0)" xlink:href="#o"/><use transform="matrix(0.04999999999999998,0,0,0.04999999999999998,30.899999999999984,0)" xlink:href="#v"/><use transform="matrix(0.04999999999999998,0,0,0.04999999999999998,41.84999999999998,0)" xlink:href="#u"/><use transform="matrix(0.04999999999999998,0,0,0.04999999999999998,52.79999999999998,0)" xlink:href="#o"/><use transform="matrix(0.04999999999999998,0,0,0.04999999999999998,58.749999999999964,0)" xlink:href="#w"/><use transform="matrix(0.04999999999999998,0,0,0.04999999999999998,68.69999999999996,0)" xlink:href="#l"/><use transform="matrix(0.04999999999999998,0,0,0.04999999999999998,75.69999999999996,0)" xlink:href="#n"/><use transform="matrix(0.04999999999999998,0,0,0.04999999999999998,85.69999999999996,0)" xlink:href="#x"/><use transform="matrix(0.04999999999999998,0,0,0.04999999999999998,96.64999999999995,0)" xlink:href="#s"/><use transform="matrix(0.04999999999999998,0,0,0.04999999999999998,106.64999999999993,0)" xlink:href="#y"/><use transform="matrix(0.04999999999999998,0,0,0.04999999999999998,112.59999999999997,0)" xlink:href="#p"/><use transform="matrix(0.04999999999999998,0,0,0.04999999999999998,123.54999999999995,0)" xlink:href="#l"/><use transform="matrix(0.04999999999999998,0,0,0.04999999999999998,130.54999999999995,0)" xlink:href="#z"/><use transform="matrix(0.04999999999999998,0,0,0.04999999999999998,146.54999999999995,0)" xlink:href="#m"/><use transform="matrix(0.04999999999999998,0,0,0.04999999999999998,156.54999999999995,0)" xlink:href="#l"/></g><g id="j"><use transform="matrix(0.04999999999999998,0,0,0.04999999999999998,0,0)" xlink:href="#t"/><use transform="matrix(0.04999999999999998,0,0,0.04999999999999998,13.999999999999995,0)" xlink:href="#u"/><use transform="matrix(0.04999999999999998,0,0,0.04999999999999998,24.94999999999999,0)" xlink:href="#o"/><use transform="matrix(0.04999999999999998,0,0,0.04999999999999998,30.899999999999984,0)" xlink:href="#v"/><use transform="matrix(0.04999999999999998,0,0,0.04999999999999998,41.84999999999998,0)" xlink:href="#u"/><use transform="matrix(0.04999999999999998,0,0,0.04999999999999998,52.79999999999998,0)" xlink:href="#o"/><use transform="matrix(0.04999999999999998,0,0,0.04999999999999998,58.749999999999964,0)" xlink:href="#k"/><use transform="matrix(0.04999999999999998,0,0,0.04999999999999998,71.69999999999996,0)" xlink:href="#p"/><use transform="matrix(0.04999999999999998,0,0,0.04999999999999998,82.64999999999995,0)" xlink:href="#w"/><use transform="matrix(0.04999999999999998,0,0,0.04999999999999998,92.59999999999994,0)" xlink:href="#l"/><use transform="matrix(0.04999999999999998,0,0,0.04999999999999998,99.59999999999994,0)" xlink:href="#n"/><use transform="matrix(0.04999999999999998,0,0,0.04999999999999998,109.59999999999994,0)" xlink:href="#x"/><use transform="matrix(0.04999999999999998,0,0,0.04999999999999998,120.54999999999994,0)" xlink:href="#s"/><use transform="matrix(0.04999999999999998,0,0,0.04999999999999998,130.54999999999993,0)" xlink:href="#y"/><use transform="matrix(0.04999999999999998,0,0,0.04999999999999998,136.49999999999991,0)" xlink:href="#p"/><use transform="matrix(0.04999999999999998,0,0,0.04999999999999998,147.4499999999999,0)" xlink:href="#l"/><use transform="matrix(0.04999999999999998,0,0,0.04999999999999998,154.4499999999999,0)" xlink:href="#z"/><use transform="matrix(0.04999999999999998,0,0,0.04999999999999998,170.4499999999999,0)" xlink:href="#m"/><use transform="matrix(0.04999999999999998,0,0,0.04999999999999998,180.4499999999999,0)" xlink:href="#l"/></g></defs></g></svg>