<svg height="432pt" version="1.1" viewBox="0 0 576 432" width="576pt" xmlns="http://www.w3.org/2000/svg" xmlns:xlink="http://www.w3.org/1999/xlink">
 <metadata>
  <rdf:RDF xmlns:cc="http://creativecommons.org/ns#" xmlns:dc="http://purl.org/dc/elements/1.1/" xmlns:rdf="http://www.w3.org/1999/02/22-rdf-syntax-ns#">
   <cc:Work>
    <dc:type rdf:resource="http://purl.org/dc/dcmitype/StillImage"/>
    <dc:date>2021-08-02T02:28:52.479477</dc:date>
    <dc:format>image/svg+xml</dc:format>
    <dc:creator>
     <cc:Agent>
      <dc:title>Matplotlib v3.4.2, https://matplotlib.org/</dc:title>
     </cc:Agent>
    </dc:creator>
   </cc:Work>
  </rdf:RDF>
 </metadata>
 <defs>
  <style type="text/css">*{stroke-linecap:butt;stroke-linejoin:round;}</style>
 </defs>
 <g id="figure_1">
  <g id="patch_1">
   <path d="M 0 432  L 576 432  L 576 0  L 0 0  z " style="fill:#ffffff;"/>
  </g>
  <g id="axes_1">
   <g id="patch_2">
    <path d="M 72 384.48  L 518.4 384.48  L 518.4 51.84  L 72 51.84  z " style="fill:#ffffff;"/>
   </g>
   <g id="matplotlib.axis_1">
    <g id="xtick_1">
     <g id="line2d_1">
      <defs>
       <path d="M 0 0  L 0 3.5  " id="m6ebb7f61e1" style="stroke:#000000;stroke-width:0.8;"/>
      </defs>
      <g>
       <use style="stroke:#000000;stroke-width:0.8;" x="86.57516" xlink:href="#m6ebb7f61e1" y="384.48"/>
      </g>
     </g>
     <g id="text_1">
      <!-- 2020-04-01 -->
      <g transform="translate(57.517348 399.078438)scale(0.1 -0.1)">
       <defs>
        <path d="M 1228 531  L 3431 531  L 3431 0  L 469 0  L 469 531  Q 828 903 1448 1529  Q 2069 2156 2228 2338  Q 2531 2678 2651 2914  Q 2772 3150 2772 3378  Q 2772 3750 2511 3984  Q 2250 4219 1831 4219  Q 1534 4219 1204 4116  Q 875 4013 500 3803  L 500 4441  Q 881 4594 1212 4672  Q 1544 4750 1819 4750  Q 2544 4750 2975 4387  Q 3406 4025 3406 3419  Q 3406 3131 3298 2873  Q 3191 2616 2906 2266  Q 2828 2175 2409 1742  Q 1991 1309 1228 531  z " id="DejaVuSans-32" transform="scale(0.015625)"/>
        <path d="M 2034 4250  Q 1547 4250 1301 3770  Q 1056 3291 1056 2328  Q 1056 1369 1301 889  Q 1547 409 2034 409  Q 2525 409 2770 889  Q 3016 1369 3016 2328  Q 3016 3291 2770 3770  Q 2525 4250 2034 4250  z M 2034 4750  Q 2819 4750 3233 4129  Q 3647 3509 3647 2328  Q 3647 1150 3233 529  Q 2819 -91 2034 -91  Q 1250 -91 836 529  Q 422 1150 422 2328  Q 422 3509 836 4129  Q 1250 4750 2034 4750  z " id="DejaVuSans-30" transform="scale(0.015625)"/>
        <path d="M 313 2009  L 1997 2009  L 1997 1497  L 313 1497  L 313 2009  z " id="DejaVuSans-2d" transform="scale(0.015625)"/>
        <path d="M 2419 4116  L 825 1625  L 2419 1625  L 2419 4116  z M 2253 4666  L 3047 4666  L 3047 1625  L 3713 1625  L 3713 1100  L 3047 1100  L 3047 0  L 2419 0  L 2419 1100  L 313 1100  L 313 1709  L 2253 4666  z " id="DejaVuSans-34" transform="scale(0.015625)"/>
        <path d="M 794 531  L 1825 531  L 1825 4091  L 703 3866  L 703 4441  L 1819 4666  L 2450 4666  L 2450 531  L 3481 531  L 3481 0  L 794 0  L 794 531  z " id="DejaVuSans-31" transform="scale(0.015625)"/>
       </defs>
       <use xlink:href="#DejaVuSans-32"/>
       <use x="63.623047" xlink:href="#DejaVuSans-30"/>
       <use x="127.246094" xlink:href="#DejaVuSans-32"/>
       <use x="190.869141" xlink:href="#DejaVuSans-30"/>
       <use x="254.492188" xlink:href="#DejaVuSans-2d"/>
       <use x="290.576172" xlink:href="#DejaVuSans-30"/>
       <use x="354.199219" xlink:href="#DejaVuSans-34"/>
       <use x="417.822266" xlink:href="#DejaVuSans-2d"/>
       <use x="453.90625" xlink:href="#DejaVuSans-30"/>
       <use x="517.529297" xlink:href="#DejaVuSans-31"/>
      </g>
     </g>
    </g>
    <g id="xtick_2">
     <g id="line2d_2">
      <g>
       <use style="stroke:#000000;stroke-width:0.8;" x="166.595647" xlink:href="#m6ebb7f61e1" y="384.48"/>
      </g>
     </g>
     <g id="text_2">
      <!-- 2020-04-15 -->
      <g transform="translate(137.537834 399.078438)scale(0.1 -0.1)">
       <defs>
        <path d="M 691 4666  L 3169 4666  L 3169 4134  L 1269 4134  L 1269 2991  Q 1406 3038 1543 3061  Q 1681 3084 1819 3084  Q 2600 3084 3056 2656  Q 3513 2228 3513 1497  Q 3513 744 3044 326  Q 2575 -91 1722 -91  Q 1428 -91 1123 -41  Q 819 9 494 109  L 494 744  Q 775 591 1075 516  Q 1375 441 1709 441  Q 2250 441 2565 725  Q 2881 1009 2881 1497  Q 2881 1984 2565 2268  Q 2250 2553 1709 2553  Q 1456 2553 1204 2497  Q 953 2441 691 2322  L 691 4666  z " id="DejaVuSans-35" transform="scale(0.015625)"/>
       </defs>
       <use xlink:href="#DejaVuSans-32"/>
       <use x="63.623047" xlink:href="#DejaVuSans-30"/>
       <use x="127.246094" xlink:href="#DejaVuSans-32"/>
       <use x="190.869141" xlink:href="#DejaVuSans-30"/>
       <use x="254.492188" xlink:href="#DejaVuSans-2d"/>
       <use x="290.576172" xlink:href="#DejaVuSans-30"/>
       <use x="354.199219" xlink:href="#DejaVuSans-34"/>
       <use x="417.822266" xlink:href="#DejaVuSans-2d"/>
       <use x="453.90625" xlink:href="#DejaVuSans-31"/>
       <use x="517.529297" xlink:href="#DejaVuSans-35"/>
      </g>
     </g>
    </g>
    <g id="xtick_3">
     <g id="line2d_3">
      <g>
       <use style="stroke:#000000;stroke-width:0.8;" x="258.047631" xlink:href="#m6ebb7f61e1" y="384.48"/>
      </g>
     </g>
     <g id="text_3">
      <!-- 2020-05-01 -->
      <g transform="translate(228.989819 399.078438)scale(0.1 -0.1)">
       <use xlink:href="#DejaVuSans-32"/>
       <use x="63.623047" xlink:href="#DejaVuSans-30"/>
       <use x="127.246094" xlink:href="#DejaVuSans-32"/>
       <use x="190.869141" xlink:href="#DejaVuSans-30"/>
       <use x="254.492188" xlink:href="#DejaVuSans-2d"/>
       <use x="290.576172" xlink:href="#DejaVuSans-30"/>
       <use x="354.199219" xlink:href="#DejaVuSans-35"/>
       <use x="417.822266" xlink:href="#DejaVuSans-2d"/>
       <use x="453.90625" xlink:href="#DejaVuSans-30"/>
       <use x="517.529297" xlink:href="#DejaVuSans-31"/>
      </g>
     </g>
    </g>
    <g id="xtick_4">
     <g id="line2d_4">
      <g>
       <use style="stroke:#000000;stroke-width:0.8;" x="338.068118" xlink:href="#m6ebb7f61e1" y="384.48"/>
      </g>
     </g>
     <g id="text_4">
      <!-- 2020-05-15 -->
      <g transform="translate(309.010305 399.078438)scale(0.1 -0.1)">
       <use xlink:href="#DejaVuSans-32"/>
       <use x="63.623047" xlink:href="#DejaVuSans-30"/>
       <use x="127.246094" xlink:href="#DejaVuSans-32"/>
       <use x="190.869141" xlink:href="#DejaVuSans-30"/>
       <use x="254.492188" xlink:href="#DejaVuSans-2d"/>
       <use x="290.576172" xlink:href="#DejaVuSans-30"/>
       <use x="354.199219" xlink:href="#DejaVuSans-35"/>
       <use x="417.822266" xlink:href="#DejaVuSans-2d"/>
       <use x="453.90625" xlink:href="#DejaVuSans-31"/>
       <use x="517.529297" xlink:href="#DejaVuSans-35"/>
      </g>
     </g>
    </g>
    <g id="xtick_5">
     <g id="line2d_5">
      <g>
       <use style="stroke:#000000;stroke-width:0.8;" x="435.235851" xlink:href="#m6ebb7f61e1" y="384.48"/>
      </g>
     </g>
     <g id="text_5">
      <!-- 2020-06-01 -->
      <g transform="translate(406.178039 399.078438)scale(0.1 -0.1)">
       <defs>
        <path d="M 2113 2584  Q 1688 2584 1439 2293  Q 1191 2003 1191 1497  Q 1191 994 1439 701  Q 1688 409 2113 409  Q 2538 409 2786 701  Q 3034 994 3034 1497  Q 3034 2003 2786 2293  Q 2538 2584 2113 2584  z M 3366 4563  L 3366 3988  Q 3128 4100 2886 4159  Q 2644 4219 2406 4219  Q 1781 4219 1451 3797  Q 1122 3375 1075 2522  Q 1259 2794 1537 2939  Q 1816 3084 2150 3084  Q 2853 3084 3261 2657  Q 3669 2231 3669 1497  Q 3669 778 3244 343  Q 2819 -91 2113 -91  Q 1303 -91 875 529  Q 447 1150 447 2328  Q 447 3434 972 4092  Q 1497 4750 2381 4750  Q 2619 4750 2861 4703  Q 3103 4656 3366 4563  z " id="DejaVuSans-36" transform="scale(0.015625)"/>
       </defs>
       <use xlink:href="#DejaVuSans-32"/>
       <use x="63.623047" xlink:href="#DejaVuSans-30"/>
       <use x="127.246094" xlink:href="#DejaVuSans-32"/>
       <use x="190.869141" xlink:href="#DejaVuSans-30"/>
       <use x="254.492188" xlink:href="#DejaVuSans-2d"/>
       <use x="290.576172" xlink:href="#DejaVuSans-30"/>
       <use x="354.199219" xlink:href="#DejaVuSans-36"/>
       <use x="417.822266" xlink:href="#DejaVuSans-2d"/>
       <use x="453.90625" xlink:href="#DejaVuSans-30"/>
       <use x="517.529297" xlink:href="#DejaVuSans-31"/>
      </g>
     </g>
    </g>
    <g id="xtick_6">
     <g id="line2d_6">
      <g>
       <use style="stroke:#000000;stroke-width:0.8;" x="515.256338" xlink:href="#m6ebb7f61e1" y="384.48"/>
      </g>
     </g>
     <g id="text_6">
      <!-- 2020-06-15 -->
      <g transform="translate(486.198526 399.078438)scale(0.1 -0.1)">
       <use xlink:href="#DejaVuSans-32"/>
       <use x="63.623047" xlink:href="#DejaVuSans-30"/>
       <use x="127.246094" xlink:href="#DejaVuSans-32"/>
       <use x="190.869141" xlink:href="#DejaVuSans-30"/>
       <use x="254.492188" xlink:href="#DejaVuSans-2d"/>
       <use x="290.576172" xlink:href="#DejaVuSans-30"/>
       <use x="354.199219" xlink:href="#DejaVuSans-36"/>
       <use x="417.822266" xlink:href="#DejaVuSans-2d"/>
       <use x="453.90625" xlink:href="#DejaVuSans-31"/>
       <use x="517.529297" xlink:href="#DejaVuSans-35"/>
      </g>
     </g>
    </g>
    <g id="text_7">
     <!-- Date -->
     <g transform="translate(283.249219 412.756563)scale(0.1 -0.1)">
      <defs>
       <path d="M 1259 4147  L 1259 519  L 2022 519  Q 2988 519 3436 956  Q 3884 1394 3884 2338  Q 3884 3275 3436 3711  Q 2988 4147 2022 4147  L 1259 4147  z M 628 4666  L 1925 4666  Q 3281 4666 3915 4102  Q 4550 3538 4550 2338  Q 4550 1131 3912 565  Q 3275 0 1925 0  L 628 0  L 628 4666  z " id="DejaVuSans-44" transform="scale(0.015625)"/>
       <path d="M 2194 1759  Q 1497 1759 1228 1600  Q 959 1441 959 1056  Q 959 750 1161 570  Q 1363 391 1709 391  Q 2188 391 2477 730  Q 2766 1069 2766 1631  L 2766 1759  L 2194 1759  z M 3341 1997  L 3341 0  L 2766 0  L 2766 531  Q 2569 213 2275 61  Q 1981 -91 1556 -91  Q 1019 -91 701 211  Q 384 513 384 1019  Q 384 1609 779 1909  Q 1175 2209 1959 2209  L 2766 2209  L 2766 2266  Q 2766 2663 2505 2880  Q 2244 3097 1772 3097  Q 1472 3097 1187 3025  Q 903 2953 641 2809  L 641 3341  Q 956 3463 1253 3523  Q 1550 3584 1831 3584  Q 2591 3584 2966 3190  Q 3341 2797 3341 1997  z " id="DejaVuSans-61" transform="scale(0.015625)"/>
       <path d="M 1172 4494  L 1172 3500  L 2356 3500  L 2356 3053  L 1172 3053  L 1172 1153  Q 1172 725 1289 603  Q 1406 481 1766 481  L 2356 481  L 2356 0  L 1766 0  Q 1100 0 847 248  Q 594 497 594 1153  L 594 3053  L 172 3053  L 172 3500  L 594 3500  L 594 4494  L 1172 4494  z " id="DejaVuSans-74" transform="scale(0.015625)"/>
       <path d="M 3597 1894  L 3597 1613  L 953 1613  Q 991 1019 1311 708  Q 1631 397 2203 397  Q 2534 397 2845 478  Q 3156 559 3463 722  L 3463 178  Q 3153 47 2828 -22  Q 2503 -91 2169 -91  Q 1331 -91 842 396  Q 353 884 353 1716  Q 353 2575 817 3079  Q 1281 3584 2069 3584  Q 2775 3584 3186 3129  Q 3597 2675 3597 1894  z M 3022 2063  Q 3016 2534 2758 2815  Q 2500 3097 2075 3097  Q 1594 3097 1305 2825  Q 1016 2553 972 2059  L 3022 2063  z " id="DejaVuSans-65" transform="scale(0.015625)"/>
      </defs>
      <use xlink:href="#DejaVuSans-44"/>
      <use x="77.001953" xlink:href="#DejaVuSans-61"/>
      <use x="138.28125" xlink:href="#DejaVuSans-74"/>
      <use x="177.490234" xlink:href="#DejaVuSans-65"/>
     </g>
    </g>
   </g>
   <g id="matplotlib.axis_2">
    <g id="ytick_1">
     <g id="line2d_7">
      <defs>
       <path d="M 0 0  L -3.5 0  " id="mb3e679cf9a" style="stroke:#000000;stroke-width:0.8;"/>
      </defs>
      <g>
       <use style="stroke:#000000;stroke-width:0.8;" x="72" xlink:href="#mb3e679cf9a" y="369.803922"/>
      </g>
     </g>
     <g id="text_8">
      <!-- 0 -->
      <g transform="translate(58.6375 373.60314)scale(0.1 -0.1)">
       <use xlink:href="#DejaVuSans-30"/>
      </g>
     </g>
    </g>
    <g id="ytick_2">
     <g id="line2d_8">
      <g>
       <use style="stroke:#000000;stroke-width:0.8;" x="72" xlink:href="#mb3e679cf9a" y="312.15176"/>
      </g>
     </g>
     <g id="text_9">
      <!-- 20000 -->
      <g transform="translate(33.1875 315.950979)scale(0.1 -0.1)">
       <use xlink:href="#DejaVuSans-32"/>
       <use x="63.623047" xlink:href="#DejaVuSans-30"/>
       <use x="127.246094" xlink:href="#DejaVuSans-30"/>
       <use x="190.869141" xlink:href="#DejaVuSans-30"/>
       <use x="254.492188" xlink:href="#DejaVuSans-30"/>
      </g>
     </g>
    </g>
    <g id="ytick_3">
     <g id="line2d_9">
      <g>
       <use style="stroke:#000000;stroke-width:0.8;" x="72" xlink:href="#mb3e679cf9a" y="254.499599"/>
      </g>
     </g>
     <g id="text_10">
      <!-- 40000 -->
      <g transform="translate(33.1875 258.298817)scale(0.1 -0.1)">
       <use xlink:href="#DejaVuSans-34"/>
       <use x="63.623047" xlink:href="#DejaVuSans-30"/>
       <use x="127.246094" xlink:href="#DejaVuSans-30"/>
       <use x="190.869141" xlink:href="#DejaVuSans-30"/>
       <use x="254.492188" xlink:href="#DejaVuSans-30"/>
      </g>
     </g>
    </g>
    <g id="ytick_4">
     <g id="line2d_10">
      <g>
       <use style="stroke:#000000;stroke-width:0.8;" x="72" xlink:href="#mb3e679cf9a" y="196.847437"/>
      </g>
     </g>
     <g id="text_11">
      <!-- 60000 -->
      <g transform="translate(33.1875 200.646656)scale(0.1 -0.1)">
       <use xlink:href="#DejaVuSans-36"/>
       <use x="63.623047" xlink:href="#DejaVuSans-30"/>
       <use x="127.246094" xlink:href="#DejaVuSans-30"/>
       <use x="190.869141" xlink:href="#DejaVuSans-30"/>
       <use x="254.492188" xlink:href="#DejaVuSans-30"/>
      </g>
     </g>
    </g>
    <g id="ytick_5">
     <g id="line2d_11">
      <g>
       <use style="stroke:#000000;stroke-width:0.8;" x="72" xlink:href="#mb3e679cf9a" y="139.195276"/>
      </g>
     </g>
     <g id="text_12">
      <!-- 80000 -->
      <g transform="translate(33.1875 142.994494)scale(0.1 -0.1)">
       <defs>
        <path d="M 2034 2216  Q 1584 2216 1326 1975  Q 1069 1734 1069 1313  Q 1069 891 1326 650  Q 1584 409 2034 409  Q 2484 409 2743 651  Q 3003 894 3003 1313  Q 3003 1734 2745 1975  Q 2488 2216 2034 2216  z M 1403 2484  Q 997 2584 770 2862  Q 544 3141 544 3541  Q 544 4100 942 4425  Q 1341 4750 2034 4750  Q 2731 4750 3128 4425  Q 3525 4100 3525 3541  Q 3525 3141 3298 2862  Q 3072 2584 2669 2484  Q 3125 2378 3379 2068  Q 3634 1759 3634 1313  Q 3634 634 3220 271  Q 2806 -91 2034 -91  Q 1263 -91 848 271  Q 434 634 434 1313  Q 434 1759 690 2068  Q 947 2378 1403 2484  z M 1172 3481  Q 1172 3119 1398 2916  Q 1625 2713 2034 2713  Q 2441 2713 2670 2916  Q 2900 3119 2900 3481  Q 2900 3844 2670 4047  Q 2441 4250 2034 4250  Q 1625 4250 1398 4047  Q 1172 3844 1172 3481  z " id="DejaVuSans-38" transform="scale(0.015625)"/>
       </defs>
       <use xlink:href="#DejaVuSans-38"/>
       <use x="63.623047" xlink:href="#DejaVuSans-30"/>
       <use x="127.246094" xlink:href="#DejaVuSans-30"/>
       <use x="190.869141" xlink:href="#DejaVuSans-30"/>
       <use x="254.492188" xlink:href="#DejaVuSans-30"/>
      </g>
     </g>
    </g>
    <g id="ytick_6">
     <g id="line2d_12">
      <g>
       <use style="stroke:#000000;stroke-width:0.8;" x="72" xlink:href="#mb3e679cf9a" y="81.543114"/>
      </g>
     </g>
     <g id="text_13">
      <!-- 100000 -->
      <g transform="translate(26.825 85.342333)scale(0.1 -0.1)">
       <use xlink:href="#DejaVuSans-31"/>
       <use x="63.623047" xlink:href="#DejaVuSans-30"/>
       <use x="127.246094" xlink:href="#DejaVuSans-30"/>
       <use x="190.869141" xlink:href="#DejaVuSans-30"/>
       <use x="254.492188" xlink:href="#DejaVuSans-30"/>
       <use x="318.115234" xlink:href="#DejaVuSans-30"/>
      </g>
     </g>
    </g>
    <g id="text_14">
     <!-- Count -->
     <g transform="translate(20.745312 233.008437)rotate(-90)scale(0.1 -0.1)">
      <defs>
       <path d="M 4122 4306  L 4122 3641  Q 3803 3938 3442 4084  Q 3081 4231 2675 4231  Q 1875 4231 1450 3742  Q 1025 3253 1025 2328  Q 1025 1406 1450 917  Q 1875 428 2675 428  Q 3081 428 3442 575  Q 3803 722 4122 1019  L 4122 359  Q 3791 134 3420 21  Q 3050 -91 2638 -91  Q 1578 -91 968 557  Q 359 1206 359 2328  Q 359 3453 968 4101  Q 1578 4750 2638 4750  Q 3056 4750 3426 4639  Q 3797 4528 4122 4306  z " id="DejaVuSans-43" transform="scale(0.015625)"/>
       <path d="M 1959 3097  Q 1497 3097 1228 2736  Q 959 2375 959 1747  Q 959 1119 1226 758  Q 1494 397 1959 397  Q 2419 397 2687 759  Q 2956 1122 2956 1747  Q 2956 2369 2687 2733  Q 2419 3097 1959 3097  z M 1959 3584  Q 2709 3584 3137 3096  Q 3566 2609 3566 1747  Q 3566 888 3137 398  Q 2709 -91 1959 -91  Q 1206 -91 779 398  Q 353 888 353 1747  Q 353 2609 779 3096  Q 1206 3584 1959 3584  z " id="DejaVuSans-6f" transform="scale(0.015625)"/>
       <path d="M 544 1381  L 544 3500  L 1119 3500  L 1119 1403  Q 1119 906 1312 657  Q 1506 409 1894 409  Q 2359 409 2629 706  Q 2900 1003 2900 1516  L 2900 3500  L 3475 3500  L 3475 0  L 2900 0  L 2900 538  Q 2691 219 2414 64  Q 2138 -91 1772 -91  Q 1169 -91 856 284  Q 544 659 544 1381  z M 1991 3584  L 1991 3584  z " id="DejaVuSans-75" transform="scale(0.015625)"/>
       <path d="M 3513 2113  L 3513 0  L 2938 0  L 2938 2094  Q 2938 2591 2744 2837  Q 2550 3084 2163 3084  Q 1697 3084 1428 2787  Q 1159 2491 1159 1978  L 1159 0  L 581 0  L 581 3500  L 1159 3500  L 1159 2956  Q 1366 3272 1645 3428  Q 1925 3584 2291 3584  Q 2894 3584 3203 3211  Q 3513 2838 3513 2113  z " id="DejaVuSans-6e" transform="scale(0.015625)"/>
      </defs>
      <use xlink:href="#DejaVuSans-43"/>
      <use x="69.824219" xlink:href="#DejaVuSans-6f"/>
      <use x="131.005859" xlink:href="#DejaVuSans-75"/>
      <use x="194.384766" xlink:href="#DejaVuSans-6e"/>
      <use x="257.763672" xlink:href="#DejaVuSans-74"/>
     </g>
    </g>
   </g>
   <g id="line2d_13">
    <path clip-path="url(#p63935f9029)" d="M 92.290909 343.958458  L 98.006658 339.819032  L 103.722407 335.973633  L 109.438156 333.771321  L 115.153905 329.917274  L 120.869654 325.982514  L 126.585403 321.404932  L 132.301152 315.204442  L 138.016901 309.3441  L 143.73265 303.907501  L 149.448399 296.369481  L 155.164149 292.356891  L 160.879898 288.618148  L 166.595647 283.559171  L 172.311396 277.038711  L 178.027145 268.955878  L 183.742894 263.254079  L 189.458643 258.321937  L 195.174392 253.773181  L 200.890141 249.218661  L 206.60589 244.081853  L 212.321639 235.108294  L 218.037388 220.773084  L 223.753137 213.753934  L 229.468886 209.089874  L 235.184635 204.644892  L 240.900384 199.173702  L 246.616133 193.385425  L 252.331882 187.591383  L 258.047631 181.315945  L 263.76338 175.406598  L 269.479129 169.987295  L 275.194878 166.902905  L 280.910627 163.253523  L 286.626376 157.822689  L 292.342125 152.633995  L 298.057875 147.583665  L 303.773624 143.343349  L 309.489373 140.129241  L 315.205122 138.016289  L 320.920871 135.246103  L 326.63662 131.536186  L 332.352369 126.338844  L 338.068118 122.516505  L 343.783867 117.938924  L 349.499616 114.693107  L 355.215365 111.620247  L 360.931114 108.867356  L 366.646863 105.601361  L 372.362612 102.124936  L 378.078361 99.426815  L 383.79411 96.991011  L 389.509859 93.915268  L 395.225608 92.018512  L 400.941357 90.692512  L 406.657106 88.957182  L 412.372855 86.737574  L 418.088604 84.771635  L 423.804353 82.197466  L 429.520102 80.194054  L 435.235851 79.222615  L 440.951601 78.190641  L 446.66735 76.954002  L 452.383099 75.596294  L 458.098848 74.172285  L 463.814597 72.514786  L 469.530346 71.638473  L 475.246095 71.090777  L 480.961844 70.332651  L 486.677593 69.562995  L 492.393342 68.089982  L 498.109091 66.96  " style="fill:none;stroke:#1f77b4;stroke-linecap:square;stroke-width:1.5;"/>
   </g>
   <g id="line2d_14">
    <path clip-path="url(#p63935f9029)" d="M 92.290909 369.36  L 98.006658 369.250461  L 103.722407 369.181278  L 109.438156 369.138039  L 115.153905 369.054444  L 120.869654 368.777713  L 126.585403 368.555752  L 132.301152 368.35397  L 138.016901 368.077239  L 143.73265 367.826453  L 149.448399 367.62467  L 155.164149 367.371  L 160.879898 367.371  L 166.595647 366.609992  L 172.311396 366.609992  L 178.027145 366.215075  L 183.742894 365.75674  L 189.458643 364.886192  L 195.174392 364.886192  L 200.890141 364.151127  L 206.60589 363.514071  L 212.321639 363.000967  L 218.037388 362.435975  L 223.753137 361.934402  L 229.468886 361.447241  L 235.184635 361.14745  L 240.900384 360.715058  L 246.616133 359.988641  L 252.331882 359.536072  L 258.047631 359.09215  L 263.76338 358.717411  L 269.479129 358.261959  L 275.194878 358.014055  L 280.910627 357.662376  L 286.626376 357.062794  L 292.342125 356.68229  L 298.057875 356.249898  L 303.773624 355.852099  L 309.489373 355.451416  L 315.205122 355.07956  L 320.920871 354.984434  L 326.63662 354.48286  L 332.352369 354.001464  L 338.068118 353.684377  L 343.783867 353.358643  L 349.499616 353.093443  L 355.215365 352.906073  L 360.931114 352.686995  L 366.646863 352.318021  L 372.362612 352.081647  L 378.078361 351.851039  L 383.79411 351.63196  L 389.509859 351.435943  L 395.225608 351.309108  L 400.941357 351.1448  L 406.657106 350.931487  L 412.372855 350.663404  L 418.088604 350.438561  L 423.804353 350.29443  L 429.520102 350.069587  L 435.235851 349.524774  L 440.951601 349.380643  L 446.66735 349.187509  L 452.383099 349.046261  L 458.098848 348.948252  L 463.814597 348.792591  L 469.530346 348.714761  L 475.246095 348.608104  L 480.961844 348.449561  L 486.677593 348.316961  L 492.393342 348.207422  L 498.109091 348.074822  " style="fill:none;stroke:#ff7f0e;stroke-linecap:square;stroke-width:1.5;"/>
   </g>
   <g id="line2d_15"/>
   <g id="line2d_16"/>
   <g id="patch_3">
    <path d="M 72 384.48  L 72 51.84  " style="fill:none;stroke:#000000;stroke-linecap:square;stroke-linejoin:miter;stroke-width:0.8;"/>
   </g>
   <g id="patch_4">
    <path d="M 518.4 384.48  L 518.4 51.84  " style="fill:none;stroke:#000000;stroke-linecap:square;stroke-linejoin:miter;stroke-width:0.8;"/>
   </g>
   <g id="patch_5">
    <path d="M 72 384.48  L 518.4 384.48  " style="fill:none;stroke:#000000;stroke-linecap:square;stroke-linejoin:miter;stroke-width:0.8;"/>
   </g>
   <g id="patch_6">
    <path d="M 72 51.84  L 518.4 51.84  " style="fill:none;stroke:#000000;stroke-linecap:square;stroke-linejoin:miter;stroke-width:0.8;"/>
   </g>
   <g id="text_15">
    <!-- Count Over Time for Massachusetts -->
    <g transform="translate(205.914844 45.84)scale(0.1 -0.1)">
     <defs>
      <path id="DejaVuSans-20" transform="scale(0.015625)"/>
      <path d="M 2522 4238  Q 1834 4238 1429 3725  Q 1025 3213 1025 2328  Q 1025 1447 1429 934  Q 1834 422 2522 422  Q 3209 422 3611 934  Q 4013 1447 4013 2328  Q 4013 3213 3611 3725  Q 3209 4238 2522 4238  z M 2522 4750  Q 3503 4750 4090 4092  Q 4678 3434 4678 2328  Q 4678 1225 4090 567  Q 3503 -91 2522 -91  Q 1538 -91 948 565  Q 359 1222 359 2328  Q 359 3434 948 4092  Q 1538 4750 2522 4750  z " id="DejaVuSans-4f" transform="scale(0.015625)"/>
      <path d="M 191 3500  L 800 3500  L 1894 563  L 2988 3500  L 3597 3500  L 2284 0  L 1503 0  L 191 3500  z " id="DejaVuSans-76" transform="scale(0.015625)"/>
      <path d="M 2631 2963  Q 2534 3019 2420 3045  Q 2306 3072 2169 3072  Q 1681 3072 1420 2755  Q 1159 2438 1159 1844  L 1159 0  L 581 0  L 581 3500  L 1159 3500  L 1159 2956  Q 1341 3275 1631 3429  Q 1922 3584 2338 3584  Q 2397 3584 2469 3576  Q 2541 3569 2628 3553  L 2631 2963  z " id="DejaVuSans-72" transform="scale(0.015625)"/>
      <path d="M -19 4666  L 3928 4666  L 3928 4134  L 2272 4134  L 2272 0  L 1638 0  L 1638 4134  L -19 4134  L -19 4666  z " id="DejaVuSans-54" transform="scale(0.015625)"/>
      <path d="M 603 3500  L 1178 3500  L 1178 0  L 603 0  L 603 3500  z M 603 4863  L 1178 4863  L 1178 4134  L 603 4134  L 603 4863  z " id="DejaVuSans-69" transform="scale(0.015625)"/>
      <path d="M 3328 2828  Q 3544 3216 3844 3400  Q 4144 3584 4550 3584  Q 5097 3584 5394 3201  Q 5691 2819 5691 2113  L 5691 0  L 5113 0  L 5113 2094  Q 5113 2597 4934 2840  Q 4756 3084 4391 3084  Q 3944 3084 3684 2787  Q 3425 2491 3425 1978  L 3425 0  L 2847 0  L 2847 2094  Q 2847 2600 2669 2842  Q 2491 3084 2119 3084  Q 1678 3084 1418 2786  Q 1159 2488 1159 1978  L 1159 0  L 581 0  L 581 3500  L 1159 3500  L 1159 2956  Q 1356 3278 1631 3431  Q 1906 3584 2284 3584  Q 2666 3584 2933 3390  Q 3200 3197 3328 2828  z " id="DejaVuSans-6d" transform="scale(0.015625)"/>
      <path d="M 2375 4863  L 2375 4384  L 1825 4384  Q 1516 4384 1395 4259  Q 1275 4134 1275 3809  L 1275 3500  L 2222 3500  L 2222 3053  L 1275 3053  L 1275 0  L 697 0  L 697 3053  L 147 3053  L 147 3500  L 697 3500  L 697 3744  Q 697 4328 969 4595  Q 1241 4863 1831 4863  L 2375 4863  z " id="DejaVuSans-66" transform="scale(0.015625)"/>
      <path d="M 628 4666  L 1569 4666  L 2759 1491  L 3956 4666  L 4897 4666  L 4897 0  L 4281 0  L 4281 4097  L 3078 897  L 2444 897  L 1241 4097  L 1241 0  L 628 0  L 628 4666  z " id="DejaVuSans-4d" transform="scale(0.015625)"/>
      <path d="M 2834 3397  L 2834 2853  Q 2591 2978 2328 3040  Q 2066 3103 1784 3103  Q 1356 3103 1142 2972  Q 928 2841 928 2578  Q 928 2378 1081 2264  Q 1234 2150 1697 2047  L 1894 2003  Q 2506 1872 2764 1633  Q 3022 1394 3022 966  Q 3022 478 2636 193  Q 2250 -91 1575 -91  Q 1294 -91 989 -36  Q 684 19 347 128  L 347 722  Q 666 556 975 473  Q 1284 391 1588 391  Q 1994 391 2212 530  Q 2431 669 2431 922  Q 2431 1156 2273 1281  Q 2116 1406 1581 1522  L 1381 1569  Q 847 1681 609 1914  Q 372 2147 372 2553  Q 372 3047 722 3315  Q 1072 3584 1716 3584  Q 2034 3584 2315 3537  Q 2597 3491 2834 3397  z " id="DejaVuSans-73" transform="scale(0.015625)"/>
      <path d="M 3122 3366  L 3122 2828  Q 2878 2963 2633 3030  Q 2388 3097 2138 3097  Q 1578 3097 1268 2742  Q 959 2388 959 1747  Q 959 1106 1268 751  Q 1578 397 2138 397  Q 2388 397 2633 464  Q 2878 531 3122 666  L 3122 134  Q 2881 22 2623 -34  Q 2366 -91 2075 -91  Q 1284 -91 818 406  Q 353 903 353 1747  Q 353 2603 823 3093  Q 1294 3584 2113 3584  Q 2378 3584 2631 3529  Q 2884 3475 3122 3366  z " id="DejaVuSans-63" transform="scale(0.015625)"/>
      <path d="M 3513 2113  L 3513 0  L 2938 0  L 2938 2094  Q 2938 2591 2744 2837  Q 2550 3084 2163 3084  Q 1697 3084 1428 2787  Q 1159 2491 1159 1978  L 1159 0  L 581 0  L 581 4863  L 1159 4863  L 1159 2956  Q 1366 3272 1645 3428  Q 1925 3584 2291 3584  Q 2894 3584 3203 3211  Q 3513 2838 3513 2113  z " id="DejaVuSans-68" transform="scale(0.015625)"/>
     </defs>
     <use xlink:href="#DejaVuSans-43"/>
     <use x="69.824219" xlink:href="#DejaVuSans-6f"/>
     <use x="131.005859" xlink:href="#DejaVuSans-75"/>
     <use x="194.384766" xlink:href="#DejaVuSans-6e"/>
     <use x="257.763672" xlink:href="#DejaVuSans-74"/>
     <use x="296.972656" xlink:href="#DejaVuSans-20"/>
     <use x="328.759766" xlink:href="#DejaVuSans-4f"/>
     <use x="407.470703" xlink:href="#DejaVuSans-76"/>
     <use x="466.650391" xlink:href="#DejaVuSans-65"/>
     <use x="528.173828" xlink:href="#DejaVuSans-72"/>
     <use x="569.287109" xlink:href="#DejaVuSans-20"/>
     <use x="601.074219" xlink:href="#DejaVuSans-54"/>
     <use x="659.033203" xlink:href="#DejaVuSans-69"/>
     <use x="686.816406" xlink:href="#DejaVuSans-6d"/>
     <use x="784.228516" xlink:href="#DejaVuSans-65"/>
     <use x="845.751953" xlink:href="#DejaVuSans-20"/>
     <use x="877.539062" xlink:href="#DejaVuSans-66"/>
     <use x="912.744141" xlink:href="#DejaVuSans-6f"/>
     <use x="973.925781" xlink:href="#DejaVuSans-72"/>
     <use x="1015.039062" xlink:href="#DejaVuSans-20"/>
     <use x="1046.826172" xlink:href="#DejaVuSans-4d"/>
     <use x="1133.105469" xlink:href="#DejaVuSans-61"/>
     <use x="1194.384766" xlink:href="#DejaVuSans-73"/>
     <use x="1246.484375" xlink:href="#DejaVuSans-73"/>
     <use x="1298.583984" xlink:href="#DejaVuSans-61"/>
     <use x="1359.863281" xlink:href="#DejaVuSans-63"/>
     <use x="1414.84375" xlink:href="#DejaVuSans-68"/>
     <use x="1478.222656" xlink:href="#DejaVuSans-75"/>
     <use x="1541.601562" xlink:href="#DejaVuSans-73"/>
     <use x="1593.701172" xlink:href="#DejaVuSans-65"/>
     <use x="1655.224609" xlink:href="#DejaVuSans-74"/>
     <use x="1694.433594" xlink:href="#DejaVuSans-74"/>
     <use x="1733.642578" xlink:href="#DejaVuSans-73"/>
    </g>
   </g>
   <g id="legend_1">
    <g id="patch_7">
     <path d="M 79 103.874375  L 161.43125 103.874375  Q 163.43125 103.874375 163.43125 101.874375  L 163.43125 58.84  Q 163.43125 56.84 161.43125 56.84  L 79 56.84  Q 77 56.84 77 58.84  L 77 101.874375  Q 77 103.874375 79 103.874375  z " style="fill:#ffffff;opacity:0.8;stroke:#cccccc;stroke-linejoin:miter;"/>
    </g>
    <g id="text_16">
     <!-- variable -->
     <g transform="translate(100.04375 68.438437)scale(0.1 -0.1)">
      <defs>
       <path d="M 3116 1747  Q 3116 2381 2855 2742  Q 2594 3103 2138 3103  Q 1681 3103 1420 2742  Q 1159 2381 1159 1747  Q 1159 1113 1420 752  Q 1681 391 2138 391  Q 2594 391 2855 752  Q 3116 1113 3116 1747  z M 1159 2969  Q 1341 3281 1617 3432  Q 1894 3584 2278 3584  Q 2916 3584 3314 3078  Q 3713 2572 3713 1747  Q 3713 922 3314 415  Q 2916 -91 2278 -91  Q 1894 -91 1617 61  Q 1341 213 1159 525  L 1159 0  L 581 0  L 581 4863  L 1159 4863  L 1159 2969  z " id="DejaVuSans-62" transform="scale(0.015625)"/>
       <path d="M 603 4863  L 1178 4863  L 1178 0  L 603 0  L 603 4863  z " id="DejaVuSans-6c" transform="scale(0.015625)"/>
      </defs>
      <use xlink:href="#DejaVuSans-76"/>
      <use x="59.179688" xlink:href="#DejaVuSans-61"/>
      <use x="120.458984" xlink:href="#DejaVuSans-72"/>
      <use x="161.572266" xlink:href="#DejaVuSans-69"/>
      <use x="189.355469" xlink:href="#DejaVuSans-61"/>
      <use x="250.634766" xlink:href="#DejaVuSans-62"/>
      <use x="314.111328" xlink:href="#DejaVuSans-6c"/>
      <use x="341.894531" xlink:href="#DejaVuSans-65"/>
     </g>
    </g>
    <g id="line2d_17">
     <path d="M 81 79.616562  L 101 79.616562  " style="fill:none;stroke:#1f77b4;stroke-linecap:square;stroke-width:1.5;"/>
    </g>
    <g id="line2d_18"/>
    <g id="text_17">
     <!-- confirmed -->
     <g transform="translate(109 83.116562)scale(0.1 -0.1)">
      <defs>
       <path d="M 2906 2969  L 2906 4863  L 3481 4863  L 3481 0  L 2906 0  L 2906 525  Q 2725 213 2448 61  Q 2172 -91 1784 -91  Q 1150 -91 751 415  Q 353 922 353 1747  Q 353 2572 751 3078  Q 1150 3584 1784 3584  Q 2172 3584 2448 3432  Q 2725 3281 2906 2969  z M 947 1747  Q 947 1113 1208 752  Q 1469 391 1925 391  Q 2381 391 2643 752  Q 2906 1113 2906 1747  Q 2906 2381 2643 2742  Q 2381 3103 1925 3103  Q 1469 3103 1208 2742  Q 947 2381 947 1747  z " id="DejaVuSans-64" transform="scale(0.015625)"/>
      </defs>
      <use xlink:href="#DejaVuSans-63"/>
      <use x="54.980469" xlink:href="#DejaVuSans-6f"/>
      <use x="116.162109" xlink:href="#DejaVuSans-6e"/>
      <use x="179.541016" xlink:href="#DejaVuSans-66"/>
      <use x="214.746094" xlink:href="#DejaVuSans-69"/>
      <use x="242.529297" xlink:href="#DejaVuSans-72"/>
      <use x="281.892578" xlink:href="#DejaVuSans-6d"/>
      <use x="379.304688" xlink:href="#DejaVuSans-65"/>
      <use x="440.828125" xlink:href="#DejaVuSans-64"/>
     </g>
    </g>
    <g id="line2d_19">
     <path d="M 81 94.294688  L 101 94.294688  " style="fill:none;stroke:#ff7f0e;stroke-linecap:square;stroke-width:1.5;"/>
    </g>
    <g id="line2d_20"/>
    <g id="text_18">
     <!-- death -->
     <g transform="translate(109 97.794688)scale(0.1 -0.1)">
      <use xlink:href="#DejaVuSans-64"/>
      <use x="63.476562" xlink:href="#DejaVuSans-65"/>
      <use x="125" xlink:href="#DejaVuSans-61"/>
      <use x="186.279297" xlink:href="#DejaVuSans-74"/>
      <use x="225.488281" xlink:href="#DejaVuSans-68"/>
     </g>
    </g>
   </g>
  </g>
 </g>
 <defs>
  <clipPath id="p63935f9029">
   <rect height="332.64" width="446.4" x="72" y="51.84"/>
  </clipPath>
 </defs>
</svg>