<svg xmlns="http://www.w3.org/2000/svg" xmlns:xlink="http://www.w3.org/1999/xlink" xmlns:lucid="lucid" width="744" height="234"><g transform="translate(-236 -53)" lucid:page-tab-id="dsm7UA06_lkG"><path d="M256 128h192v64H256z" stroke="#000" stroke-opacity="0" stroke-width="2" fill="#f9d2de"/><use xlink:href="#a" transform="matrix(1,0,0,1,261,133) translate(51.192283950617295 31.455555555555552)"/><path d="M352 193v44.5" stroke="#666" stroke-width="2" fill="none"/><path d="M353 193.03h-2V192h2z" fill="#666"/><path d="M352 252.76l-4.64-14.26h9.28z" stroke="#666" stroke-width="2" fill="#666"/><path d="M512 128h192v64H512z" stroke="#000" stroke-opacity="0" stroke-width="2" fill="#ffeca9"/><use xlink:href="#b" transform="matrix(1,0,0,1,517,133) translate(36.198148148148164 31.455555555555552)"/><path d="M608 193v44.5" stroke="#666" stroke-width="2" fill="none"/><path d="M609 193.03h-2V192h2z" fill="#666"/><path d="M608 252.76l-4.64-14.26h9.28z" stroke="#666" stroke-width="2" fill="#666"/><path d="M512.83 64.55l79.78 53.2M512.85 64.57L512 64" stroke="#666" stroke-width="2" fill="none"/><path d="M605.3 126.2l-14.43-4.05 5.14-7.72z" stroke="#666" stroke-width="2" fill="#666"/><path d="M608 65v44.5M608 65.03V64" stroke="#666" stroke-width="2" fill="none"/><path d="M608 124.76l-4.64-14.26h9.28z" stroke="#666" stroke-width="2" fill="#666"/><path d="M703.17 64.55l-79.78 53.2M703.15 64.57L704 64" stroke="#666" stroke-width="2" fill="none"/><path d="M610.7 126.2l9.3-11.77 5.13 7.72z" stroke="#666" stroke-width="2" fill="#666"/><path d="M768 128h192v64H768z" stroke="#000" stroke-opacity="0" stroke-width="2" fill="#c7e8ac"/><use xlink:href="#c" transform="matrix(1,0,0,1,773,133) translate(40.063580246913595 31.455555555555552)"/><path d="M768.83 64.55l79.78 53.2M768.85 64.57L768 64" stroke="#666" stroke-width="2" fill="none"/><path d="M861.3 126.2l-14.43-4.05 5.14-7.72z" stroke="#666" stroke-width="2" fill="#666"/><path d="M864 65v44.5M864 65.03V64" stroke="#666" stroke-width="2" fill="none"/><path d="M864 124.76l-4.64-14.26h9.28z" stroke="#666" stroke-width="2" fill="#666"/><path d="M959.17 64.55l-79.78 53.2M959.15 64.57L960 64" stroke="#666" stroke-width="2" fill="none"/><path d="M866.7 126.2l9.3-11.77 5.13 7.72z" stroke="#666" stroke-width="2" fill="#666"/><defs><path d="M67-125c0 53 21 87 73 88 37 1 54-22 65-47l45 17C233-25 199 4 140 4 58 4 20-42 15-125 8-235 124-281 211-232c18 10 29 29 36 50l-46 12c-8-25-30-41-62-41-52 0-71 34-72 86" id="d"/><path d="M135-150c-39-12-60 13-60 57V0H25l-1-190h47c2 13-1 29 3 40 6-28 27-53 61-41v41" id="e"/><path d="M185-48c-13 30-37 53-82 52C43 2 14-33 14-96s30-98 90-98c62 0 83 45 84 108H66c0 31 8 55 39 56 18 0 30-7 34-22zm-45-69c5-46-57-63-70-21-2 6-4 13-4 21h74" id="f"/><path d="M133-34C117-15 103 5 69 4 32 3 11-16 11-54c-1-60 55-63 116-61 1-26-3-47-28-47-18 1-26 9-28 27l-52-2c7-38 36-58 82-57s74 22 75 68l1 82c-1 14 12 18 25 15v27c-30 8-71 5-69-32zm-48 3c29 0 43-24 42-57-32 0-66-3-65 30 0 17 8 27 23 27" id="g"/><path d="M115-3C79 11 28 4 28-45v-112H4v-33h27l15-45h31v45h36v33H77v99c-1 23 16 31 38 25v30" id="h"/><path d="M110-194c64 0 96 36 96 99 0 64-35 99-97 99-61 0-95-36-95-99 0-62 34-99 96-99zm-1 164c35 0 45-28 45-65 0-40-10-65-43-65-34 0-45 26-45 65 0 36 10 65 43 65" id="i"/><g id="a"><use transform="matrix(0.06234567901234567,0,0,0.06234567901234567,0,0)" xlink:href="#d"/><use transform="matrix(0.06234567901234567,0,0,0.06234567901234567,16.147530864197527,0)" xlink:href="#e"/><use transform="matrix(0.06234567901234567,0,0,0.06234567901234567,24.87592592592592,0)" xlink:href="#f"/><use transform="matrix(0.06234567901234567,0,0,0.06234567901234567,37.34506172839505,0)" xlink:href="#g"/><use transform="matrix(0.06234567901234567,0,0,0.06234567901234567,49.814197530864185,0)" xlink:href="#h"/><use transform="matrix(0.06234567901234567,0,0,0.06234567901234567,57.23333333333332,0)" xlink:href="#i"/><use transform="matrix(0.06234567901234567,0,0,0.06234567901234567,70.88703703703702,0)" xlink:href="#e"/></g><path d="M24-248c93 1 206-16 204 79-1 75-69 88-152 82V0H24v-248zm52 121c47 0 100 7 100-41 0-47-54-39-100-39v80" id="j"/><path d="M190-63c-7 42-38 67-86 67-59 0-84-38-90-98-12-110 154-137 174-36l-49 2c-2-19-15-32-35-32-30 0-35 28-38 64-6 74 65 87 74 30" id="k"/><path d="M137-138c1-29-70-34-71-4 15 46 118 7 119 86 1 83-164 76-172 9l43-7c4 19 20 25 44 25 33 8 57-30 24-41C81-84 22-81 20-136c-2-80 154-74 161-7" id="l"/><g id="b"><use transform="matrix(0.06234567901234567,0,0,0.06234567901234567,0,0)" xlink:href="#j"/><use transform="matrix(0.06234567901234567,0,0,0.06234567901234567,14.96296296296296,0)" xlink:href="#e"/><use transform="matrix(0.06234567901234567,0,0,0.06234567901234567,23.691358024691354,0)" xlink:href="#i"/><use transform="matrix(0.06234567901234567,0,0,0.06234567901234567,37.34506172839505,0)" xlink:href="#k"/><use transform="matrix(0.06234567901234567,0,0,0.06234567901234567,49.814197530864185,0)" xlink:href="#f"/><use transform="matrix(0.06234567901234567,0,0,0.06234567901234567,62.28333333333332,0)" xlink:href="#l"/><use transform="matrix(0.06234567901234567,0,0,0.06234567901234567,74.75246913580244,0)" xlink:href="#l"/><use transform="matrix(0.06234567901234567,0,0,0.06234567901234567,87.22160493827158,0)" xlink:href="#i"/><use transform="matrix(0.06234567901234567,0,0,0.06234567901234567,100.87530864197528,0)" xlink:href="#e"/></g><path d="M140-251c80 0 125 45 125 126S219 4 139 4C58 4 15-44 15-125s44-126 125-126zm-1 214c52 0 73-35 73-88 0-50-21-86-72-86-52 0-73 35-73 86s22 88 72 88" id="m"/><path d="M85 4C-2 5 27-109 22-190h50c7 57-23 150 33 157 60-5 35-97 40-157h50l1 190h-47c-2-12 1-28-3-38-12 25-28 42-61 42" id="n"/><path d="M135-194c53 0 70 44 70 98 0 56-19 98-73 100-31 1-45-17-59-34 3 33 2 69 2 105H25l-1-265h48c2 10 0 23 3 31 11-24 29-35 60-35zM114-30c33 0 39-31 40-66 0-38-9-64-40-64-56 0-55 130 0 130" id="o"/><g id="c"><use transform="matrix(0.06234567901234567,0,0,0.06234567901234567,0,0)" xlink:href="#m"/><use transform="matrix(0.06234567901234567,0,0,0.06234567901234567,17.456790123456788,0)" xlink:href="#n"/><use transform="matrix(0.06234567901234567,0,0,0.06234567901234567,31.11049382716049,0)" xlink:href="#h"/><use transform="matrix(0.06234567901234567,0,0,0.06234567901234567,38.529629629629625,0)" xlink:href="#o"/><use transform="matrix(0.06234567901234567,0,0,0.06234567901234567,52.18333333333332,0)" xlink:href="#n"/><use transform="matrix(0.06234567901234567,0,0,0.06234567901234567,65.83703703703702,0)" xlink:href="#h"/><use transform="matrix(0.06234567901234567,0,0,0.06234567901234567,73.25617283950615,0)" xlink:href="#h"/><use transform="matrix(0.06234567901234567,0,0,0.06234567901234567,80.67530864197528,0)" xlink:href="#f"/><use transform="matrix(0.06234567901234567,0,0,0.06234567901234567,93.14444444444442,0)" xlink:href="#e"/></g></defs></g></svg>