<svg xmlns="http://www.w3.org/2000/svg" xmlns:xlink="http://www.w3.org/1999/xlink" xmlns:lucid="lucid" width="488" height="234"><g transform="translate(-364 -277)" lucid:page-tab-id="dsm7UA06_lkG"><path d="M384 352h192v64H384z" stroke="#000" stroke-opacity="0" stroke-width="2" fill="#c1e4f7"/><use xlink:href="#a" transform="matrix(1,0,0,1,389,357) translate(25.66172839506173 31.455555555555552)"/><path d="M480 417v44.5" stroke="#666" stroke-width="2" fill="none"/><path d="M481 417.03h-2V416h2z" fill="#666"/><path d="M480 476.76l-4.64-14.26h9.28z" stroke="#666" stroke-width="2" fill="#666"/><path d="M640 352h192v64H640z" stroke="#000" stroke-opacity="0" stroke-width="2" fill="#99d5ca"/><use xlink:href="#b" transform="matrix(1,0,0,1,645,357) translate(10.76111111111112 31.455555555555552)"/><path d="M736 417v44.5" stroke="#666" stroke-width="2" fill="none"/><path d="M737 417.03h-2V416h2z" fill="#666"/><path d="M736 476.76l-4.64-14.26h9.28z" stroke="#666" stroke-width="2" fill="#666"/><path d="M640.83 288.55l79.78 53.2M640.85 288.57L640 288" stroke="#666" stroke-width="2" fill="none"/><path d="M733.3 350.2l-14.43-4.05 5.14-7.72z" stroke="#666" stroke-width="2" fill="#666"/><path d="M736 289v44.5M736 289.03V288" stroke="#666" stroke-width="2" fill="none"/><path d="M736 348.76l-4.64-14.26h9.28z" stroke="#666" stroke-width="2" fill="#666"/><path d="M831.17 288.55l-79.78 53.2M831.15 288.57l.85-.57" stroke="#666" stroke-width="2" fill="none"/><path d="M738.7 350.2l9.3-11.77 5.13 7.72z" stroke="#666" stroke-width="2" fill="#666"/><path d="M480 289v44.5M480 289.03V288" stroke="#666" stroke-width="2" fill="none"/><path d="M480 348.76l-4.64-14.26h9.28z" stroke="#666" stroke-width="2" fill="#666"/><defs><path d="M136-208V0H84v-208H4v-40h212v40h-80" id="c"/><path d="M135-150c-39-12-60 13-60 57V0H25l-1-190h47c2 13-1 29 3 40 6-28 27-53 61-41v41" id="d"/><path d="M133-34C117-15 103 5 69 4 32 3 11-16 11-54c-1-60 55-63 116-61 1-26-3-47-28-47-18 1-26 9-28 27l-52-2c7-38 36-58 82-57s74 22 75 68l1 82c-1 14 12 18 25 15v27c-30 8-71 5-69-32zm-48 3c29 0 43-24 42-57-32 0-66-3-65 30 0 17 8 27 23 27" id="e"/><path d="M135-194c87-1 58 113 63 194h-50c-7-57 23-157-34-157-59 0-34 97-39 157H25l-1-190h47c2 12-1 28 3 38 12-26 28-41 61-42" id="f"/><path d="M137-138c1-29-70-34-71-4 15 46 118 7 119 86 1 83-164 76-172 9l43-7c4 19 20 25 44 25 33 8 57-30 24-41C81-84 22-81 20-136c-2-80 154-74 161-7" id="g"/><path d="M121-226c-27-7-43 5-38 36h38v33H83V0H34v-157H6v-33h28c-9-59 32-81 87-68v32" id="h"/><path d="M110-194c64 0 96 36 96 99 0 64-35 99-97 99-61 0-95-36-95-99 0-62 34-99 96-99zm-1 164c35 0 45-28 45-65 0-40-10-65-43-65-34 0-45 26-45 65 0 36 10 65 43 65" id="i"/><path d="M220-157c-53 9-28 100-34 157h-49v-107c1-27-5-49-29-50C55-147 81-57 75 0H25l-1-190h47c2 12-1 28 3 38 10-53 101-56 108 0 13-22 24-43 59-42 82 1 51 116 57 194h-49v-107c-1-25-5-48-29-50" id="j"/><path d="M185-48c-13 30-37 53-82 52C43 2 14-33 14-96s30-98 90-98c62 0 83 45 84 108H66c0 31 8 55 39 56 18 0 30-7 34-22zm-45-69c5-46-57-63-70-21-2 6-4 13-4 21h74" id="k"/><g id="a"><use transform="matrix(0.06234567901234567,0,0,0.06234567901234567,0,0)" xlink:href="#c"/><use transform="matrix(0.06234567901234567,0,0,0.06234567901234567,12.406790123456789,0)" xlink:href="#d"/><use transform="matrix(0.06234567901234567,0,0,0.06234567901234567,21.135185185185183,0)" xlink:href="#e"/><use transform="matrix(0.06234567901234567,0,0,0.06234567901234567,33.60432098765432,0)" xlink:href="#f"/><use transform="matrix(0.06234567901234567,0,0,0.06234567901234567,47.25802469135802,0)" xlink:href="#g"/><use transform="matrix(0.06234567901234567,0,0,0.06234567901234567,59.72716049382715,0)" xlink:href="#h"/><use transform="matrix(0.06234567901234567,0,0,0.06234567901234567,67.14629629629628,0)" xlink:href="#i"/><use transform="matrix(0.06234567901234567,0,0,0.06234567901234567,80.79999999999998,0)" xlink:href="#d"/><use transform="matrix(0.06234567901234567,0,0,0.06234567901234567,89.52839506172838,0)" xlink:href="#j"/><use transform="matrix(0.06234567901234567,0,0,0.06234567901234567,109.479012345679,0)" xlink:href="#k"/><use transform="matrix(0.06234567901234567,0,0,0.06234567901234567,121.94814814814814,0)" xlink:href="#d"/></g><path d="M67-125c0 53 21 87 73 88 37 1 54-22 65-47l45 17C233-25 199 4 140 4 58 4 20-42 15-125 8-235 124-281 211-232c18 10 29 29 36 50l-46 12c-8-25-30-41-62-41-52 0-71 34-72 86" id="l"/><g id="b"><use transform="matrix(0.06234567901234567,0,0,0.06234567901234567,0,0)" xlink:href="#l"/><use transform="matrix(0.06234567901234567,0,0,0.06234567901234567,16.147530864197527,0)" xlink:href="#i"/><use transform="matrix(0.06234567901234567,0,0,0.06234567901234567,29.80123456790123,0)" xlink:href="#c"/><use transform="matrix(0.06234567901234567,0,0,0.06234567901234567,42.20802469135802,0)" xlink:href="#d"/><use transform="matrix(0.06234567901234567,0,0,0.06234567901234567,50.93641975308641,0)" xlink:href="#e"/><use transform="matrix(0.06234567901234567,0,0,0.06234567901234567,63.405555555555544,0)" xlink:href="#f"/><use transform="matrix(0.06234567901234567,0,0,0.06234567901234567,77.05925925925925,0)" xlink:href="#g"/><use transform="matrix(0.06234567901234567,0,0,0.06234567901234567,89.52839506172839,0)" xlink:href="#h"/><use transform="matrix(0.06234567901234567,0,0,0.06234567901234567,96.94753086419752,0)" xlink:href="#i"/><use transform="matrix(0.06234567901234567,0,0,0.06234567901234567,110.60123456790122,0)" xlink:href="#d"/><use transform="matrix(0.06234567901234567,0,0,0.06234567901234567,119.32962962962961,0)" xlink:href="#j"/><use transform="matrix(0.06234567901234567,0,0,0.06234567901234567,139.2802469135802,0)" xlink:href="#k"/><use transform="matrix(0.06234567901234567,0,0,0.06234567901234567,151.74938271604935,0)" xlink:href="#d"/></g></defs></g></svg>