<svg xmlns="http://www.w3.org/2000/svg" xmlns:xlink="http://www.w3.org/1999/xlink" xmlns:lucid="lucid" width="1000" height="234"><g transform="translate(-236.00000000000006 -277)" lucid:page-tab-id="ffXLCKgFxKT8"><path d="M256 352h192v64H256z" stroke="#000" stroke-opacity="0" stroke-width="2" fill="#c1e4f7"/><use xlink:href="#a" transform="matrix(1,0,0,1,261.00000000000006,357) translate(25.66172839506173 31.455555555555552)"/><path d="M352 417v44.5" stroke="#666" stroke-width="2" fill="none"/><path d="M353 417.03h-2V416h2z" fill="#666"/><path d="M352 476.76l-4.64-14.26h9.28z" stroke="#666" stroke-width="2" fill="#666"/><path d="M512 352h192v64H512z" stroke="#000" stroke-opacity="0" stroke-width="2" fill="#99d5ca"/><use xlink:href="#b" transform="matrix(1,0,0,1,517,357) translate(10.76111111111112 31.455555555555552)"/><path d="M608 417v44.5" stroke="#666" stroke-width="2" fill="none"/><path d="M609 417.03h-2V416h2z" fill="#666"/><path d="M608 476.76l-4.64-14.26h9.28z" stroke="#666" stroke-width="2" fill="#666"/><path d="M512.83 288.55l79.78 53.2M512.85 288.57L512 288" stroke="#666" stroke-width="2" fill="none"/><path d="M605.3 350.2l-14.43-4.05 5.14-7.72z" stroke="#666" stroke-width="2" fill="#666"/><path d="M608 289v44.5M608 289.03V288" stroke="#666" stroke-width="2" fill="none"/><path d="M608 348.76l-4.64-14.26h9.28z" stroke="#666" stroke-width="2" fill="#666"/><path d="M703.17 288.55l-79.78 53.2M703.15 288.57l.85-.57" stroke="#666" stroke-width="2" fill="none"/><path d="M610.7 350.2l9.3-11.77 5.13 7.72z" stroke="#666" stroke-width="2" fill="#666"/><path d="M352 289v44.5M352 289.03V288" stroke="#666" stroke-width="2" fill="none"/><path d="M352 348.76l-4.64-14.26h9.28z" stroke="#666" stroke-width="2" fill="#666"/><path d="M768 352h192v64H768z" stroke="#000" stroke-opacity="0" stroke-width="2" fill="#c1e4f7"/><use xlink:href="#c" transform="matrix(1,0,0,1,773,357) translate(9.225000000000023 31.274999999999995)"/><path d="M864 417v44.5" stroke="#666" stroke-width="2" fill="none"/><path d="M865 417.03h-2V416h2z" fill="#666"/><path d="M864 476.76l-4.64-14.26h9.28z" stroke="#666" stroke-width="2" fill="#666"/><path d="M1024 352h192v64h-192z" stroke="#000" stroke-opacity="0" stroke-width="2" fill="#99d5ca"/><use xlink:href="#d" transform="matrix(1,0,0,1,1029,357) translate(-2.7249999999999517 30.599999999999998)"/><path d="M1120 417v44.5" stroke="#666" stroke-width="2" fill="none"/><path d="M1121 417.03h-2V416h2z" fill="#666"/><path d="M1120 476.76l-4.64-14.26h9.28z" stroke="#666" stroke-width="2" fill="#666"/><path d="M1024.83 288.55l79.78 53.2M1024.85 288.57l-.85-.57" stroke="#666" stroke-width="2" fill="none"/><path d="M1117.3 350.2l-14.43-4.05 5.14-7.72z" stroke="#666" stroke-width="2" fill="#666"/><path d="M1120 289v44.5M1120 289.03V288" stroke="#666" stroke-width="2" fill="none"/><path d="M1120 348.76l-4.64-14.26h9.28z" stroke="#666" stroke-width="2" fill="#666"/><path d="M1215.17 288.55l-79.78 53.2M1215.15 288.57l.85-.57" stroke="#666" stroke-width="2" fill="none"/><path d="M1122.7 350.2l9.3-11.77 5.13 7.72z" stroke="#666" stroke-width="2" fill="#666"/><path d="M864 289v44.5M864 289.03V288" stroke="#666" stroke-width="2" fill="none"/><path d="M864 348.76l-4.64-14.26h9.28z" stroke="#666" stroke-width="2" fill="#666"/><defs><path d="M136-208V0H84v-208H4v-40h212v40h-80" id="e"/><path d="M135-150c-39-12-60 13-60 57V0H25l-1-190h47c2 13-1 29 3 40 6-28 27-53 61-41v41" id="f"/><path d="M133-34C117-15 103 5 69 4 32 3 11-16 11-54c-1-60 55-63 116-61 1-26-3-47-28-47-18 1-26 9-28 27l-52-2c7-38 36-58 82-57s74 22 75 68l1 82c-1 14 12 18 25 15v27c-30 8-71 5-69-32zm-48 3c29 0 43-24 42-57-32 0-66-3-65 30 0 17 8 27 23 27" id="g"/><path d="M135-194c87-1 58 113 63 194h-50c-7-57 23-157-34-157-59 0-34 97-39 157H25l-1-190h47c2 12-1 28 3 38 12-26 28-41 61-42" id="h"/><path d="M137-138c1-29-70-34-71-4 15 46 118 7 119 86 1 83-164 76-172 9l43-7c4 19 20 25 44 25 33 8 57-30 24-41C81-84 22-81 20-136c-2-80 154-74 161-7" id="i"/><path d="M121-226c-27-7-43 5-38 36h38v33H83V0H34v-157H6v-33h28c-9-59 32-81 87-68v32" id="j"/><path d="M110-194c64 0 96 36 96 99 0 64-35 99-97 99-61 0-95-36-95-99 0-62 34-99 96-99zm-1 164c35 0 45-28 45-65 0-40-10-65-43-65-34 0-45 26-45 65 0 36 10 65 43 65" id="k"/><path d="M220-157c-53 9-28 100-34 157h-49v-107c1-27-5-49-29-50C55-147 81-57 75 0H25l-1-190h47c2 12-1 28 3 38 10-53 101-56 108 0 13-22 24-43 59-42 82 1 51 116 57 194h-49v-107c-1-25-5-48-29-50" id="l"/><path d="M185-48c-13 30-37 53-82 52C43 2 14-33 14-96s30-98 90-98c62 0 83 45 84 108H66c0 31 8 55 39 56 18 0 30-7 34-22zm-45-69c5-46-57-63-70-21-2 6-4 13-4 21h74" id="m"/><g id="a"><use transform="matrix(0.06234567901234567,0,0,0.06234567901234567,0,0)" xlink:href="#e"/><use transform="matrix(0.06234567901234567,0,0,0.06234567901234567,12.406790123456789,0)" xlink:href="#f"/><use transform="matrix(0.06234567901234567,0,0,0.06234567901234567,21.135185185185183,0)" xlink:href="#g"/><use transform="matrix(0.06234567901234567,0,0,0.06234567901234567,33.60432098765432,0)" xlink:href="#h"/><use transform="matrix(0.06234567901234567,0,0,0.06234567901234567,47.25802469135802,0)" xlink:href="#i"/><use transform="matrix(0.06234567901234567,0,0,0.06234567901234567,59.72716049382715,0)" xlink:href="#j"/><use transform="matrix(0.06234567901234567,0,0,0.06234567901234567,67.14629629629628,0)" xlink:href="#k"/><use transform="matrix(0.06234567901234567,0,0,0.06234567901234567,80.79999999999998,0)" xlink:href="#f"/><use transform="matrix(0.06234567901234567,0,0,0.06234567901234567,89.52839506172838,0)" xlink:href="#l"/><use transform="matrix(0.06234567901234567,0,0,0.06234567901234567,109.479012345679,0)" xlink:href="#m"/><use transform="matrix(0.06234567901234567,0,0,0.06234567901234567,121.94814814814814,0)" xlink:href="#f"/></g><path d="M67-125c0 53 21 87 73 88 37 1 54-22 65-47l45 17C233-25 199 4 140 4 58 4 20-42 15-125 8-235 124-281 211-232c18 10 29 29 36 50l-46 12c-8-25-30-41-62-41-52 0-71 34-72 86" id="n"/><g id="b"><use transform="matrix(0.06234567901234567,0,0,0.06234567901234567,0,0)" xlink:href="#n"/><use transform="matrix(0.06234567901234567,0,0,0.06234567901234567,16.147530864197527,0)" xlink:href="#k"/><use transform="matrix(0.06234567901234567,0,0,0.06234567901234567,29.80123456790123,0)" xlink:href="#e"/><use transform="matrix(0.06234567901234567,0,0,0.06234567901234567,42.20802469135802,0)" xlink:href="#f"/><use transform="matrix(0.06234567901234567,0,0,0.06234567901234567,50.93641975308641,0)" xlink:href="#g"/><use transform="matrix(0.06234567901234567,0,0,0.06234567901234567,63.405555555555544,0)" xlink:href="#h"/><use transform="matrix(0.06234567901234567,0,0,0.06234567901234567,77.05925925925925,0)" xlink:href="#i"/><use transform="matrix(0.06234567901234567,0,0,0.06234567901234567,89.52839506172839,0)" xlink:href="#j"/><use transform="matrix(0.06234567901234567,0,0,0.06234567901234567,96.94753086419752,0)" xlink:href="#k"/><use transform="matrix(0.06234567901234567,0,0,0.06234567901234567,110.60123456790122,0)" xlink:href="#f"/><use transform="matrix(0.06234567901234567,0,0,0.06234567901234567,119.32962962962961,0)" xlink:href="#l"/><use transform="matrix(0.06234567901234567,0,0,0.06234567901234567,139.2802469135802,0)" xlink:href="#m"/><use transform="matrix(0.06234567901234567,0,0,0.06234567901234567,151.74938271604935,0)" xlink:href="#f"/></g><path d="M140-251c80 0 125 45 125 126S219 4 139 4C58 4 15-44 15-125s44-126 125-126zm-1 214c52 0 73-35 73-88 0-50-21-86-72-86-52 0-73 35-73 86s22 88 72 88" id="o"/><path d="M85 4C-2 5 27-109 22-190h50c7 57-23 150 33 157 60-5 35-97 40-157h50l1 190h-47c-2-12 1-28-3-38-12 25-28 42-61 42" id="p"/><path d="M115-3C79 11 28 4 28-45v-112H4v-33h27l15-45h31v45h36v33H77v99c-1 23 16 31 38 25v30" id="q"/><path d="M135-194c53 0 70 44 70 98 0 56-19 98-73 100-31 1-45-17-59-34 3 33 2 69 2 105H25l-1-265h48c2 10 0 23 3 31 11-24 29-35 60-35zM114-30c33 0 39-31 40-66 0-38-9-64-40-64-56 0-55 130 0 130" id="r"/><g id="c"><use transform="matrix(0.04999999999999998,0,0,0.04999999999999998,0,0)" xlink:href="#o"/><use transform="matrix(0.04999999999999998,0,0,0.04999999999999998,13.999999999999995,0)" xlink:href="#p"/><use transform="matrix(0.04999999999999998,0,0,0.04999999999999998,24.94999999999999,0)" xlink:href="#q"/><use transform="matrix(0.04999999999999998,0,0,0.04999999999999998,30.899999999999984,0)" xlink:href="#r"/><use transform="matrix(0.04999999999999998,0,0,0.04999999999999998,41.84999999999998,0)" xlink:href="#p"/><use transform="matrix(0.04999999999999998,0,0,0.04999999999999998,52.79999999999998,0)" xlink:href="#q"/><use transform="matrix(0.04999999999999998,0,0,0.04999999999999998,58.749999999999964,0)" xlink:href="#e"/><use transform="matrix(0.04999999999999998,0,0,0.04999999999999998,68.69999999999996,0)" xlink:href="#f"/><use transform="matrix(0.04999999999999998,0,0,0.04999999999999998,75.69999999999996,0)" xlink:href="#g"/><use transform="matrix(0.04999999999999998,0,0,0.04999999999999998,85.69999999999996,0)" xlink:href="#h"/><use transform="matrix(0.04999999999999998,0,0,0.04999999999999998,96.64999999999995,0)" xlink:href="#i"/><use transform="matrix(0.04999999999999998,0,0,0.04999999999999998,106.64999999999993,0)" xlink:href="#j"/><use transform="matrix(0.04999999999999998,0,0,0.04999999999999998,112.59999999999997,0)" xlink:href="#k"/><use transform="matrix(0.04999999999999998,0,0,0.04999999999999998,123.54999999999995,0)" xlink:href="#f"/><use transform="matrix(0.04999999999999998,0,0,0.04999999999999998,130.54999999999995,0)" xlink:href="#l"/><use transform="matrix(0.04999999999999998,0,0,0.04999999999999998,146.54999999999995,0)" xlink:href="#m"/><use transform="matrix(0.04999999999999998,0,0,0.04999999999999998,156.54999999999995,0)" xlink:href="#f"/></g><g id="d"><use transform="matrix(0.04999999999999998,0,0,0.04999999999999998,0,0)" xlink:href="#o"/><use transform="matrix(0.04999999999999998,0,0,0.04999999999999998,13.999999999999995,0)" xlink:href="#p"/><use transform="matrix(0.04999999999999998,0,0,0.04999999999999998,24.94999999999999,0)" xlink:href="#q"/><use transform="matrix(0.04999999999999998,0,0,0.04999999999999998,30.899999999999984,0)" xlink:href="#r"/><use transform="matrix(0.04999999999999998,0,0,0.04999999999999998,41.84999999999998,0)" xlink:href="#p"/><use transform="matrix(0.04999999999999998,0,0,0.04999999999999998,52.79999999999998,0)" xlink:href="#q"/><use transform="matrix(0.04999999999999998,0,0,0.04999999999999998,58.749999999999964,0)" xlink:href="#n"/><use transform="matrix(0.04999999999999998,0,0,0.04999999999999998,71.69999999999996,0)" xlink:href="#k"/><use transform="matrix(0.04999999999999998,0,0,0.04999999999999998,82.64999999999995,0)" xlink:href="#e"/><use transform="matrix(0.04999999999999998,0,0,0.04999999999999998,92.59999999999994,0)" xlink:href="#f"/><use transform="matrix(0.04999999999999998,0,0,0.04999999999999998,99.59999999999994,0)" xlink:href="#g"/><use transform="matrix(0.04999999999999998,0,0,0.04999999999999998,109.59999999999994,0)" xlink:href="#h"/><use transform="matrix(0.04999999999999998,0,0,0.04999999999999998,120.54999999999994,0)" xlink:href="#i"/><use transform="matrix(0.04999999999999998,0,0,0.04999999999999998,130.54999999999993,0)" xlink:href="#j"/><use transform="matrix(0.04999999999999998,0,0,0.04999999999999998,136.49999999999991,0)" xlink:href="#k"/><use transform="matrix(0.04999999999999998,0,0,0.04999999999999998,147.4499999999999,0)" xlink:href="#f"/><use transform="matrix(0.04999999999999998,0,0,0.04999999999999998,154.4499999999999,0)" xlink:href="#l"/><use transform="matrix(0.04999999999999998,0,0,0.04999999999999998,170.4499999999999,0)" xlink:href="#m"/><use transform="matrix(0.04999999999999998,0,0,0.04999999999999998,180.4499999999999,0)" xlink:href="#f"/></g></defs></g></svg>